<svg xmlns="http://www.w3.org/2000/svg" xmlns:xlink="http://www.w3.org/1999/xlink" width="2440" height="1578" viewBox="0 0 2440 1578">
  <defs>
    <clipPath id="clip-path">
      <rect id="Rectangle_1431" data-name="Rectangle 1431" width="2440" height="1628.127" fill="none"/>
    </clipPath>
    <clipPath id="clip-path-3">
      <rect id="Rectangle_1399" data-name="Rectangle 1399" width="2360.428" height="1557.193" fill="none"/>
    </clipPath>
    <clipPath id="clip-path-5">
      <rect id="Rectangle_1401" data-name="Rectangle 1401" width="1919.441" height="1600.442" fill="none"/>
    </clipPath>
    <clipPath id="clip-path-6">
      <rect id="Rectangle_1402" data-name="Rectangle 1402" width="1833.703" height="1568.744" fill="none"/>
    </clipPath>
    <clipPath id="clip-path-7">
      <rect id="Rectangle_1403" data-name="Rectangle 1403" width="390.55" height="526.925" fill="none"/>
    </clipPath>
    <clipPath id="clip-path-8">
      <rect id="Rectangle_1404" data-name="Rectangle 1404" width="261.483" height="762.217" fill="none"/>
    </clipPath>
    <clipPath id="clip-path-9">
      <rect id="Rectangle_1405" data-name="Rectangle 1405" width="36.89" height="172.251" fill="none"/>
    </clipPath>
    <clipPath id="clip-path-10">
      <rect id="Rectangle_1406" data-name="Rectangle 1406" width="197.38" height="269.399" fill="none"/>
    </clipPath>
    <clipPath id="clip-path-11">
      <rect id="Rectangle_1407" data-name="Rectangle 1407" width="113.593" height="144.507" fill="none"/>
    </clipPath>
    <clipPath id="clip-path-12">
      <rect id="Rectangle_1408" data-name="Rectangle 1408" width="733.305" height="642.641" fill="none"/>
    </clipPath>
    <clipPath id="clip-path-13">
      <rect id="Rectangle_1410" data-name="Rectangle 1410" width="56.556" height="101.725" fill="none"/>
    </clipPath>
    <clipPath id="clip-path-15">
      <rect id="Rectangle_1411" data-name="Rectangle 1411" width="111.433" height="111.433" fill="none"/>
    </clipPath>
    <clipPath id="clip-path-16">
      <rect id="Rectangle_1412" data-name="Rectangle 1412" width="499.575" height="323.785" fill="none"/>
    </clipPath>
    <clipPath id="clip-path-17">
      <rect id="Rectangle_1413" data-name="Rectangle 1413" width="643.659" height="254.183" fill="none"/>
    </clipPath>
    <clipPath id="clip-path-18">
      <rect id="Rectangle_1414" data-name="Rectangle 1414" width="366.761" height="267.714" fill="none"/>
    </clipPath>
    <clipPath id="clip-path-19">
      <rect id="Rectangle_1415" data-name="Rectangle 1415" width="83.536" height="167.104" fill="none"/>
    </clipPath>
    <clipPath id="clip-path-20">
      <rect id="Rectangle_1416" data-name="Rectangle 1416" width="107.288" height="52.502" fill="none"/>
    </clipPath>
    <clipPath id="clip-path-21">
      <rect id="Rectangle_1417" data-name="Rectangle 1417" width="85.566" height="150.001" fill="none"/>
    </clipPath>
    <clipPath id="clip-path-22">
      <rect id="Rectangle_1418" data-name="Rectangle 1418" width="94.096" height="126.821" fill="none"/>
    </clipPath>
    <clipPath id="clip-path-23">
      <rect id="Rectangle_1419" data-name="Rectangle 1419" width="143.801" height="120.705" fill="none"/>
    </clipPath>
    <clipPath id="clip-path-24">
      <rect id="Rectangle_1420" data-name="Rectangle 1420" width="149.039" height="123.425" fill="none"/>
    </clipPath>
    <clipPath id="clip-path-25">
      <rect id="Rectangle_1421" data-name="Rectangle 1421" width="330.884" height="519.193" fill="none"/>
    </clipPath>
    <clipPath id="clip-path-26">
      <rect id="Rectangle_1422" data-name="Rectangle 1422" width="46.705" height="73.288" fill="none"/>
    </clipPath>
    <clipPath id="clip-path-27">
      <rect id="Rectangle_1423" data-name="Rectangle 1423" width="46.708" height="73.288" fill="none"/>
    </clipPath>
    <clipPath id="clip-path-29">
      <rect id="Rectangle_1425" data-name="Rectangle 1425" width="218.968" height="491.845" fill="none"/>
    </clipPath>
    <clipPath id="clip-path-30">
      <rect id="Rectangle_1426" data-name="Rectangle 1426" width="233" height="474.258" fill="none"/>
    </clipPath>
    <clipPath id="clip-path-31">
      <rect id="Rectangle_1427" data-name="Rectangle 1427" width="370.402" height="500.838" fill="none"/>
    </clipPath>
    <clipPath id="clip-path-32">
      <rect id="Rectangle_1428" data-name="Rectangle 1428" width="251.204" height="651.968" fill="none"/>
    </clipPath>
    <clipPath id="clip-path-33">
      <rect id="Rectangle_1429" data-name="Rectangle 1429" width="427.029" height="347.866" fill="none"/>
    </clipPath>
    <clipPath id="clip-Artboard_1">
      <rect width="2440" height="1578"/>
    </clipPath>
  </defs>
  <g id="Artboard_1" data-name="Artboard – 1" clip-path="url(#clip-Artboard_1)">
    <rect width="2440" height="1578" fill="#fff"/>
    <rect id="Rectangle_1397" data-name="Rectangle 1397" width="2440" height="1578" fill="#1f6849"/>
    <g id="Group_6928" data-name="Group 6928">
      <g id="Group_6927" data-name="Group 6927" clip-path="url(#clip-path)">
        <rect id="Rectangle_1398" data-name="Rectangle 1398" width="2440" height="1627" transform="translate(0 0)" fill="#160040"/>
        <g id="Group_6837" data-name="Group 6837">
          <g id="Group_6836" data-name="Group 6836" clip-path="url(#clip-path)">
            <g id="Group_6835" data-name="Group 6835" transform="translate(8.958 47.089)" opacity="0.3">
              <g id="Group_6834" data-name="Group 6834">
                <g id="Group_6833" data-name="Group 6833" clip-path="url(#clip-path-3)">
                  <path id="Path_24043" data-name="Path 24043" d="M49.236,284.377C28.691,302.026,7.815,320.958,3.4,343.1s14.168,47.974,47.167,51.865c16.511,1.945,33.252-1.757,48.862-5.84,177.769-46.48,327.812-149.461,518.669-153.44,9.5-.2,19.588-.033,27.611,3.364,23.772,10.063,8.856,34.537-8.322,49.412C419.843,476.844,152.9,647.472,25.207,869.447c-10.86,18.876-17.578,44.639,7.974,55.525,9.981,4.252,22.507,4.769,34.336,4.356,82.775-2.873,150.177-43.042,212.947-79.128A2804.184,2804.184,0,0,1,552.738,713.218c80.546-35.286,166.4-68.2,261.409-79.007-22.63,48.712-75.175,88.24-125.413,126.7q-273.4,209.279-509.466,438.608c-66.586,64.706-131.9,132.134-160.162,208.308-6.9,18.586-9.627,41.379,12.216,53.81,27.312,15.544,69.078,2.694,97.763-11.712,101.136-50.781,181.451-117.289,265.28-180.55,231.058-174.362,496.28-328.58,786.8-457.49,94.89-42.1,194.644-82.134,305.67-99.344,14.926-2.313,31.707-4.015,44.675,1.435,27.679,11.627,12.128,40.107-6.65,57.971C1406.25,884.76,1264,986,1148.619,1100.294s-204.735,246.785-198.011,384.479c1.558,31.912,13.888,69.072,57.551,82.189,27.452,8.247,59.409,4.2,88.445-1.1,176.2-32.188,330.649-104.643,462.175-189.178s243.115-181.617,361.175-274.565c164.746-129.7,347.092-256.525,433.055-416.527,10.554-19.647,17.968-44.424-4.4-59.022-26.316-17.178-70.262-6.051-101.686,6.757-210.618,85.878-377.8,210.575-556.58,324.084-37.3,23.681-79.261,48.179-130.579,51.107l388.929-378.9c102.008-99.376,204.238-198.99,289.605-305.111,31.346-38.968,54.2-96.156-1.607-120.055-44.213-18.938-101.644.55-145.521,19.832q-432.28,189.964-853.193,391.1c-85.452,40.836-172.206,82.592-271.784,105.076-14.972,3.38-32.449,6.129-45.761.449-21.29-9.087-14.9-30.7-4.737-46.129,135.765-206.089,481.75-328.762,595.373-540.723,6.3-11.745,11.091-26.248-1.392-35.539-16.8-12.506-47.557-4.477-68.759,4.581C1153.9,225.729,927.155,412.822,610.29,496.67q207.922-168.243,415.838-336.486c26.557-21.488,53.931-44.06,63.121-71.219s-6.087-60.187-44.7-70.8c-27.914-7.671-59.764-2.066-88.143,4.805C798.521,61.192,665.99,135.326,513.288,181.985,465.923,196.456,393.829,201.9,376.473,169.15c-12.665-23.9,17.942-48.026,49.044-62.61C553.2,46.672,476.291-20.311,357.964,51.8,244.352,121.04,143.375,203.512,49.236,284.377" transform="translate(-2.754 -14.474)" fill="#351289"/>
                </g>
              </g>
            </g>
          </g>
        </g>
        <g id="Group_6926" data-name="Group 6926">
          <g id="Group_6925" data-name="Group 6925" clip-path="url(#clip-path)">
            <g id="Group_6840" data-name="Group 6840" transform="translate(442.603 27.686)" opacity="0.26">
              <g id="Group_6839" data-name="Group 6839">
                <g id="Group_6838" data-name="Group 6838" clip-path="url(#clip-path-5)">
                  <path id="Path_24044" data-name="Path 24044" d="M2030.018,1065.682c-16.072-56.279-44.2-114.049-96.175-140.96-29.387-15.213-63.151-18.821-95.609-25.259-45.186-8.966-86.692-20.236-128.009-40.6,52.785-28.769,89.691-82.3,105.278-140.362s11.247-120.2-4.672-178.172c-6.246-22.744-15.317-44.961-34.385-58.84,31.281-46.676,53.169-105.584,35.016-158.759-8.091-23.7-23.593-44.307-41.613-61.7-42.026-40.566-104.777-63.063-161.853-50.651a67.639,67.639,0,0,0-13.042-55.752c-6.009-7.525-13.576-13.658-21.355-19.338-13.9-10.144-28.961-19.185-45.638-23.408s-33.971-2.554-48.657,6.409c-8.559-25.428-22.142-49.779-42.648-67.084-14.018-11.832-30.786-19.995-48-26.339-41.529-15.313-87.036-20.568-130.612-12.8s-82.312,28.109-112.6,60.379c-5.963-7.889-15.505-12.6-25.291-14.022s-19.813.211-29.234,3.208c-32.01,10.18-59.559,38.981-68.958,71.232-42.846-14.4-92.18,9.588-116.382,47.762s-22.5,87.96-13.566,132.271c-40.393,2.6-82.927,25.929-93.019,65.128-9.1,35.341,9.919,73.382.888,108.739-4.74,18.554-16.7,34.241-26.794,50.514s-20.519,35.5-17.493,54.4a756.951,756.951,0,0,0-80.836-215.328c-16.592-29.527-35.195-57.987-49.506-88.683-12.577-26.977-21.732-55.466-34.707-82.254s-30.419-52.427-55.43-68.567-58.706-21.121-84.746-6.705c-24.485,13.553-37.908,41.012-45.208,68.027a248.689,248.689,0,0,0-7.919,82.963c1.409,19.094,5.023,37.973,6.542,57.06,1.386,17.425,1.022,34.938.657,52.418-.485,23.173,3.38,53.683,2.9,76.86a301.965,301.965,0,0,0-132.5-62.165c-20.825-4.063-43.787-5.557-61.934,5.436-17.008,10.3-26.612,30.282-27.949,50.124s4.652,39.541,13.156,57.516C222.7,570.362,267.4,609.9,313.741,643.93c22.246,16.338,50.052,35.448,73.545,49.935-.686,10.111-1.028,21.544.094,31.616-30.842-22.422-66.615-37.54-103.58-46.91-23.017-5.83-46.988-9.5-70.506-6.24s-46.689,14.129-61.065,33.028c-18.83,24.755-19.8,59.546-10.212,89.135s28.324,55.206,46.76,80.253q54.69,74.288,109.374,148.577c24.032,32.647,48.156,65.405,76.287,94.591,68.073,70.62,155.8,120.858,242.65,166.44a678.286,678.286,0,0,0-4.633,317.089l1398.894,7.509c17.295-89.838,34.622-179.926,41.3-271.169s2.489-184.132-22.633-272.1M1099.9,1079.73c-20.067,9.47-40.387,20.682-53,38.936q-17.875-14.21-35.754-28.418a350.524,350.524,0,0,0,89.011-126.74,148.994,148.994,0,0,0,56.758,32.527c13.427,4.125,27.487,6.367,40.328,12.05s24.8,15.769,28.008,29.439c-42.3,6.786-86.6,23.919-125.348,42.206" transform="translate(-136.044 -8.511)" fill="#3df23d"/>
                </g>
              </g>
            </g>
            <g id="Group_6843" data-name="Group 6843" transform="translate(494.926 58.823)" opacity="0.26">
              <g id="Group_6842" data-name="Group 6842">
                <g id="Group_6841" data-name="Group 6841" clip-path="url(#clip-path-6)">
                  <path id="Path_24045" data-name="Path 24045" d="M1981.315,1173.769c-7.489-79.947-27.338-164.72-86.851-218.627-35.816-32.449-82.765-50.326-130.182-59.666-31.46-6.194-63.72-8.986-94.252-18.762s-60.782-28.418-75.5-56.9c82.947-35.435,142.545-120.1,147.932-210.136a206.63,206.63,0,0,0-2.635-49.181,172.248,172.248,0,0,0-44.528-88.709c20.128-23.967,40.745-49.727,45.755-80.624,5.023-30.985-6.7-62.568-23.769-88.914-18.251-28.177-43.156-52.463-73.229-67.38s-58.43-21.27-90.859-12.59c-4.958-37.527-35.881-66.791-69.478-84.239-8.715-4.529-17.851-8.527-27.549-10.1a56.707,56.707,0,0,0-40.393,8.237c.335-53.2-44.3-99.7-95.8-113.06s-106.931,1.236-153.248,27.416c-18.277,10.329-35.891,23.606-40.384,44.112-14.2-7.414-29.589-15.056-45.452-12.847-7.437,1.038-14.4,4.2-21.095,7.593-19.419,9.845-35.8,26.2-43.988,46.367-36.883-4.971-78.139,3.458-102.073,31.961-9.318,11.1-15.47,24.543-19.878,38.35-10.993,34.443-13.537,71.115-3.494,105.847-27.09-1.467-52.808,16.55-65.636,40.458s-14.3,52.558-9.766,79.31c1.35,7.941,3.188,16.185.956,23.925-1.822,6.308-6.142,11.527-9.9,16.914a111.067,111.067,0,0,0-17.555,40.615c-2.808,13.361-3.162,27.321-7.88,40.133-6.1,16.589-18.879,29.661-29.088,44.1-22.24,31.44-31.531,77.1-27.53,115.4q-17.314-74.62-40.387-147.74c-7.47-23.674-15.408-47.261-25.835-69.784-14.347-31-33.233-59.634-50.371-89.18-33.776-58.244-60.847-120.24-82.716-183.917-8.159-23.756-16.019-48.5-32.65-67.324-11.907-13.475-31.186-23.509-47.687-16.358-9.018,3.907-15.346,12.177-20.48,20.561a163.1,163.1,0,0,0-23.082,99.926c1.594,16.631,5.762,33.044,5.706,49.747-.045,14.269-3.172,28.32-4.978,42.476-6.337,49.74,4.734,102.6,14.718,151.735a881.578,881.578,0,0,0-153.147-64.93c-13.072-4.135-27.513-7.922-40.159-2.619-14.991,6.285-22.588,24.166-21.212,40.371s9.945,30.884,19.579,43.982c45.192,61.465,115.669,97.262,183.345,132.472-16.107,54.477-19.035,112.546-9.679,168.581C355.185,767.448,302.933,720.7,239.278,701.463c-26.232-7.932-59.133-9.083-76.388,12.207-12.122,14.959-12.281,36.3-8.8,55.238,13.387,72.8,68.8,129.109,113.431,188.166,40.247,53.254,73.948,112.67,124.707,156.023,66.7,56.966,157.051,81.743,236.592,118.717A678.112,678.112,0,0,0,611.3,1584.1l472.251,2.733h849.774c.481,0,3.39-.465,3.872-.465a1048.27,1048.27,0,0,0,44.122-412.594m-955.185-27.061c-29.966-24.761-58.3-47.951-90.953-69.049,18.323-38.031,47.639-69.429,72.676-103.414s46.689-73.428,45.589-115.627c6.461,22.637,16.742,44.538,32.566,61.969s37.573,30.106,61.023,32.231c14.962,1.36,30.78-1.4,44.535,4.639,21.814,9.571,29.095,36.33,33.766,59.686,1.562,7.808,1.9,17.37,2.277,25.324-80.146-11.055-164.43,32.315-201.479,104.24" transform="translate(-152.128 -18.081)" fill="#3df252"/>
                </g>
              </g>
            </g>
            <path id="Path_24046" data-name="Path 24046" d="M640.385,690.733c12.418-22.809,26.651-44.727,43.722-64.3,24.621-28.226,54.7-51.113,81.363-77.413,31.821-31.378,59.347-68.87,70.269-112.2,8.309-32.979,5.563-69.7-9.991-99.448-24.179,6.2-50.993,11.214-74.931,17.526-15.977,4.213-32.029,8.449-47.186,15.027-44.219,19.185-77.533,56.627-108.115,93.888-18.281,22.272,12.464,66.251-5.391,88.868-80,101.335-140.04,197.845-239.65,311.689l239.65-.1c.036-.891.065-1.783.1-2.671,2.251-59.845,21.527-118.262,50.16-170.859" transform="translate(789.735 760.205)" fill="#ba825b"/>
            <g id="Group_6846" data-name="Group 6846" transform="translate(1239.52 1097.571)" opacity="0.5" style="mix-blend-mode: multiply;isolation: isolate">
              <g id="Group_6845" data-name="Group 6845">
                <g id="Group_6844" data-name="Group 6844" clip-path="url(#clip-path-7)">
                  <path id="Path_24047" data-name="Path 24047" d="M756.965,337.368c-16.686,4.281-34.612,8-51.995,11.966,5.547,44.044-3.143,89.929-25.269,128.464-2.707,4.717-5.9,9.594-10.9,11.741-8.407,3.615-17.74-1.864-25.2-7.161q-40.924-29.036-80.322-60.148c-12.877,13.212-24.908,27.406-36.542,41.578-18.284,22.276,12.464,66.254-5.391,88.868C471.618,615.665,429.6,676.788,381,741.367a369.892,369.892,0,0,0,71.531,122.924l68.811-.029.1-2.668c2.255-59.845,21.527-118.262,50.163-170.862,12.415-22.809,26.651-44.724,43.722-64.3,24.618-28.229,54.692-51.113,81.363-77.416,31.821-31.378,59.347-68.867,70.266-112.2,8.312-32.979,5.563-69.7-9.988-99.451" transform="translate(-381 -337.368)" fill="#ba825b"/>
                </g>
              </g>
            </g>
            <path id="Path_24048" data-name="Path 24048" d="M299.946,1184.248A1311.052,1311.052,0,0,1,348.8,782.377c13.758-48.52,30.376-96.5,37.667-146.4,14.347-98.26,44.2-195.818,44.346-295.12.02-11.862-.263-24.075,4.015-35.139,3.26-8.426,8.973-15.642,14.6-22.715q11.424-14.357,22.848-28.711C489.153,233.078,507,211.1,531.749,200.047s58.472-7.118,72.741,15.928c7.837,12.655,8.488,28.324,8.911,43.208q.693,24.2,1.383,48.406c1.188,41.63,2.512,84.034,16.228,123.357,6.25-38.633,16.172-78.893,33.91-113.779,2.912-5.726,6.162-11.6,11.468-15.216s13.254-4.181,17.708.446c4.112,4.275,3.842,11,3.305,16.908q-6.046,66.583-12.1,133.165c-1.383,15.206-2.8,30.594-7.893,44.987-5.443,15.395-14.851,29.007-23.837,42.641C610.812,604.986,564.494,661.636,537.4,734.472c-53.709,144.383,7.307,307.665,52.31,454.992Z" transform="translate(674.151 437.431)" fill="#ba825b"/>
            <path id="Path_24049" data-name="Path 24049" d="M356.986,262.958c3.546-1.223,6.991,1.9,9.383,4.8A219.877,219.877,0,0,1,414.29,376.434" transform="translate(804.408 591.917)" fill="none" stroke="#916446" stroke-linecap="round" stroke-linejoin="round" stroke-width="1"/>
            <path id="Path_24050" data-name="Path 24050" d="M384.31,348.841A112.2,112.2,0,0,1,432.446,263.4a280.576,280.576,0,0,0,9.63,74.339" transform="translate(865.978 593.526)" fill="none" stroke="#916446" stroke-linecap="round" stroke-linejoin="round" stroke-width="1"/>
            <path id="Path_24051" data-name="Path 24051" d="M368.551,216.56a130.226,130.226,0,0,0,5.352,68.912" transform="translate(825.123 487.982)" fill="none" stroke="#916446" stroke-linecap="round" stroke-linejoin="round" stroke-width="1"/>
            <path id="Path_24052" data-name="Path 24052" d="M384.374,278.011a102.789,102.789,0,0,1-2.082-60.655" transform="translate(853.321 489.776)" fill="none" stroke="#916446" stroke-linecap="round" stroke-linejoin="round" stroke-width="1"/>
            <path id="Path_24053" data-name="Path 24053" d="M352.287,262.382a36.3,36.3,0,0,1,54.226-12.408c4.887-5.957,9.633-11.741,17.174-13.316s16.328,1.259,20.031,8.016c8.384-6.308,17.871-12.633,28.327-11.748s20.721,7.684,23.769,17.724" transform="translate(793.82 524.674)" fill="none" stroke="#916446" stroke-linecap="round" stroke-linejoin="round" stroke-width="1"/>
            <g id="Group_6849" data-name="Group 6849" transform="translate(1002.378 864.677)" opacity="0.5" style="mix-blend-mode: multiply;isolation: isolate">
              <g id="Group_6848" data-name="Group 6848">
                <g id="Group_6847" data-name="Group 6847" clip-path="url(#clip-path-8)">
                  <path id="Path_24054" data-name="Path 24054" d="M409.134,286.4l-5.056-20.613c-9.649,69.8-27.562,139.09-37.732,208.727-7.287,49.906-23.906,97.883-37.664,146.4Q317,662.095,308.108,703.99c95.85,82.313,162.266,198.418,185.219,322.636L569.591,1028c-45-147.327-106.02-310.609-52.31-454.992,10.154-27.3,23.011-52.327,37.368-76.365-18.56-7.639-36.76-16.159-52.844-28.063C445.854,427.167,425.71,354,409.134,286.4" transform="translate(-308.108 -265.782)" fill="#ba825b"/>
                </g>
              </g>
            </g>
            <path id="Path_24055" data-name="Path 24055" d="M339.817,325.569c-1.4-7.512-2.707-15.135-2.134-22.754.911-12.18,6.52-23.453,12.158-34.287,12.994-24.973,26.7-49.565,40.4-74.153,2.492-4.47,6.985-9.688,11.653-7.584,2.118.953,3.331,3.175,4.242,5.309,8.514,20.011,2.759,43.055-4.734,63.469s-16.8,41.21-15.079,62.89c1.187,14.965,7.554,30.461,2.072,44.434-4.408,11.244-24.393,24.267-35.783,14.852-9.783-8.091-10.619-40.478-12.8-52.177" transform="translate(760.601 419.819)" fill="#ba825b"/>
            <g id="Group_6852" data-name="Group 6852" transform="translate(1134.053 620.905)" opacity="0.5" style="mix-blend-mode: multiply;isolation: isolate">
              <g id="Group_6851" data-name="Group 6851">
                <g id="Group_6850" data-name="Group 6850" clip-path="url(#clip-path-9)">
                  <path id="Path_24056" data-name="Path 24056" d="M359.706,247.867c-11.92,37.169-15.635,78.155-4.291,115.24a27.9,27.9,0,0,0,8.114-10.443c5.482-13.973-.888-29.472-2.076-44.437-1.721-21.677,7.587-42.476,15.079-62.89,6.4-17.422,11.491-36.75,7.564-54.484-9.571,18.394-18.059,37.273-24.39,57.015" transform="translate(-348.582 -190.852)" fill="#ba825b"/>
                </g>
              </g>
            </g>
            <path id="Path_24057" data-name="Path 24057" d="M363.489,217.987c2.333-1.5,3.9-3.914,5.326-6.289a163.977,163.977,0,0,0,9.779-19.009c-.081-.2-.14-.394-.224-.589-.908-2.134-2.121-4.356-4.239-5.309-4.668-2.1-9.165,3.113-11.657,7.587q-6.32,11.336-12.607,22.692c4.076,2.619,9.565,3.517,13.622.917" transform="translate(788.367 419.819)" fill="#7267cb"/>
            <g id="Group_6855" data-name="Group 6855" transform="translate(1168.809 631.557)" opacity="0.5" style="mix-blend-mode: multiply;isolation: isolate">
              <g id="Group_6854" data-name="Group 6854">
                <g id="Group_6853" data-name="Group 6853" clip-path="url(#clip-path-10)">
                  <path id="Path_24058" data-name="Path 24058" d="M388.893,307.243c17.292,11.078,43.412,7.46,55.57,24.01,5.391,7.34,6.425,16.9,7.291,25.962,3.231,33.831,7.255,69.384,27.058,97,3.013,4.207,6.845,8.452,11.966,9.191,8.335,1.2,14.708-7.216,18.046-14.946,6.36-14.734,9.132-30.715,12.646-46.376a477.974,477.974,0,0,1,35.178-101.306c-4.571-2.775-11.084-1.949-15.652,1.168-5.3,3.618-8.556,9.49-11.465,15.216-17.74,34.885-27.663,75.146-33.913,113.779-13.716-39.323-15.04-81.724-16.228-123.353q-.688-24.2-1.379-48.41c-.426-14.884-1.077-30.549-8.911-43.208-14.272-23.047-47.99-26.977-72.745-15.928-14.285,6.38-26.264,16.407-37.091,27.816,1.441,10.368,3.042,20.714,4.984,31,3.455,18.313,8.953,38.328,24.644,48.38" transform="translate(-359.265 -194.125)" fill="#ba825b"/>
                </g>
              </g>
            </g>
            <path id="Path_24059" data-name="Path 24059" d="M1364.282,730.4q-3.148,5.6-6.341,11.159c-13.752,23.876-28.529,47.72-49.151,65.991-38.536,34.137-98.6,44.076-143.589,19.058-27.8-15.453-47.707-41.763-65.584-68.073-19.9-29.283-38.6-60.076-47.915-94.233-7.287-26.713-8.612-54.7-8.228-82.381,1-72.728,14.4-147.083,49.1-210.481a279.543,279.543,0,0,1-43.351-10.612c-23.6-7.834-47.112-19.624-61.6-39.834-9.887-13.791-14.819-30.435-19.234-46.816-.976-3.631-1.877-7.278-2.82-10.915C931.592,321.223,885.278,372.242,832.7,414.382c-25.038,20.067-52.945,38.858-84.776,42.885-21.41,2.71-43.448-2.137-62.246-12.688q7.559,29.319,13.755,58.967c-1.041.273-2.115.53-3.169.8,15.554,29.752,18.3,66.472,9.991,99.451-10.918,43.334-38.448,80.826-70.269,112.2-26.668,26.3-56.741,49.184-81.363,77.413-17.07,19.572-31.3,41.49-43.722,64.3-28.633,52.6-100.707,111.014-102.958,170.858-.033.888.033,1.78,0,2.668l912.323-.377c28.821-97.753,41.213-198.73,44.014-300.462" transform="translate(919.216 593.224)" fill="#fff"/>
            <path id="Path_24060" data-name="Path 24060" d="M667.851,462.089c50.29-33.929,86.392-84.626,121.366-134.2,1.405,42.027-22.952,80.595-50.759,112.146-40.819,46.324-93.514,85.25-154.338,95.885-15.86,2.775-32.364,3.556-47.918-.618-10-2.687-38.344-13.453-27.868-27.068,6.679-8.683,41.854-4.138,52.71-5.622a252.891,252.891,0,0,0,106.807-40.527" transform="translate(1140.29 738.85)" fill="#ddd"/>
            <path id="Path_24061" data-name="Path 24061" d="M1919.3,894.386c-4.919-75.3-71.563-143.462-145.733-157.387-32.117-6.028-65.2-2.778-97.786-5.235-7.935-.6-15.837-1.558-23.694-2.83-14.62,26.707-25.418,55.369-33.142,85.023-.016.046-.046.081-.062.124-49.027,131.529-111.322,258.351-172.228,390.586-203.047-106.96-411.631-213.37-614.678-320.33C798.6,866.755,758.094,861,729.633,721.517q-8.267-40.543-20.411-80.178c-13.924-45.674-33.347-89.568-46.285-135.527-6.474-23-11.335-46.539-20.239-68.707-9.474-23.583-23.323-45.124-37.488-66.225-33.018-49.2-85.146-91.341-107.552-146.192a744.779,744.779,0,0,0-56.211-110.366c-2.879-4.649-6.8-9.832-12.265-9.7-6.907.156-10.336,8.348-11.64,15.131-4.145,21.566-4.167,43.7-3.5,65.649a1081.52,1081.52,0,0,0,10.05,118.05c4.477,31.847,10.391,63.7,9.952,95.853-.621,45.83-14.126,90.657-15.984,136.455-2.1,51.689,12.838,107.272-2.931,156.541C339.1,665.107,301.16,572.15,224.43,547.021c-11.705-3.832-24.358-5.9-36.359-3.136s-23.213,11.071-26.98,22.8c-5.5,17.126,5.576,34.824,16.686,48.969C223.232,673.514,278.536,723,324.785,780.23c37.937,46.946,70.34,99.656,118.135,136.513,39.115,30.162,84.375,55.329,138,60.151q32.369,20.1,64.738,40.188c20.1,12.48,40.257,25,58.677,39.84,30.539,24.6,55.7,55.079,81.581,84.538,79.466,90.43,167.592,177.518,263,250.933l725.78-3.253c40.218-79.267,80.491-161.944,112.936-244.69,11.283-14.084,20.792-29.716,29.823-45.4q3.2-5.558,6.341-11.159c1.773-64.41-.286-129.118-4.493-193.508" transform="translate(359.71 235.731)" fill="#db996b"/>
            <path id="Path_24062" data-name="Path 24062" d="M247.326,608.666A457.171,457.171,0,0,0,364,703.419C377.277,710.96,392.6,718.043,407.322,714c23.466-6.451,30.89-36.1,30.246-60.434-1.135-43.191-14.337-85.289-16.68-128.429-2.414-44.538,6.786-88.868,8.228-133.449,3.068-94.929-29.026-188.524-29.452-283.072-.176.719-.338,1.431-.475,2.128-4.148,21.566-4.167,43.7-3.507,65.649a1081.541,1081.541,0,0,0,10.053,118.05c4.48,31.847,10.391,63.7,9.952,95.853-.625,45.83-14.123,90.657-15.987,136.454-2.1,51.689,12.844,107.272-2.931,156.541C320.747,656.1,282.8,563.142,206.077,538.013c-11.709-3.832-24.358-5.9-36.356-3.136-.657.15-1.292.381-1.942.563a122.685,122.685,0,0,1,27.582,17.272c19.689,16.185,35.1,36.844,51.965,55.954" transform="translate(378.062 244.739)" fill="#ba825b"/>
            <path id="Path_24063" data-name="Path 24063" d="M647.516,643.034c12.07-84.157,46.041-163.6,63.879-246.723,5.023-23.4,8.745-47.03,11.657-70.78C674.925,452.832,614.7,575.944,555.632,704.06a404.012,404.012,0,0,1,70.161,129.105c16.081-61.81,12.656-126.909,21.723-190.131" transform="translate(1252.024 733.532)" fill="#ba825b"/>
            <path id="Path_24064" data-name="Path 24064" d="M845.892,401.013c-1.8-27.546-11.881-54.119-27.546-77.446-27.077,116.287-61.059,230.951-95.023,345.465-11.218,37.817-22.445,75.666-36.067,112.686A919.556,919.556,0,0,1,636,896.059l65.288-.293C741.5,816.5,781.776,733.822,814.221,651.077c11.283-14.084,20.792-29.716,29.823-45.4q3.2-5.558,6.341-11.159c1.773-64.41-.286-129.118-4.493-193.508" transform="translate(1433.113 729.104)" fill="#ba825b"/>
            <path id="Path_24065" data-name="Path 24065" d="M520.049,524.27c-25.223-28.239-49.025-59.338-58.908-95.889-7.362-27.237-6.676-56.458-16.693-82.833-43.191,42.674-98.2,72.946-157.042,87.8,1.864.218,3.715.472,5.6.641q32.369,20.091,64.738,40.188c20.1,12.476,40.257,25,58.68,39.837,30.536,24.6,55.694,55.079,81.581,84.538C577.467,688.986,665.593,776.075,761,849.489l182.906-.82q-117.911-71.233-228.81-153.294C645.455,643.827,577.766,588.888,520.049,524.27" transform="translate(647.622 778.635)" fill="#ba825b"/>
            <path id="Path_24066" data-name="Path 24066" d="M241.348,185.206c-2.557-20.428-4.545-41.226-1.077-61.517S253.294,83.4,269.922,71.261c3.546-2.586,8.8-4.675,11.962-1.633,1.555,1.5,2,3.777,2.372,5.9q5.519,31.427,13.462,62.363C329.9,263.149,391.483,380.334,413.1,507.832c2.72,16.052,2.43,36.811-12.437,43.442-18.723,8.355-47.8-8.452-58.879-23.58-13.238-18.082-20.428-44.626-28.694-65.236A1120.763,1120.763,0,0,1,259.1,287.764q-11.263-50.83-17.757-102.558" transform="translate(537.223 153.499)" fill="#db996b"/>
            <path id="Path_24067" data-name="Path 24067" d="M370.151,505.043c-13.274-94.581-60.4-183.921-130.309-248.893,58.83,40.036,133.094,54.728,203.574,44.916" transform="translate(540.444 577.191)" fill="none" stroke="#916446" stroke-linecap="round" stroke-linejoin="round" stroke-width="1"/>
            <path id="Path_24068" data-name="Path 24068" d="M228.919,365.556a130.684,130.684,0,0,0,19.559-81.649c8.442,7.668,16.081,20.841,18.808,31.915,4.695,19.087,8.937,38.282,13.179,57.477" transform="translate(515.831 639.737)" fill="none" stroke="#916446" stroke-linecap="round" stroke-linejoin="round" stroke-width="1"/>
            <path id="Path_24069" data-name="Path 24069" d="M198.589,328.724c3.839.426,7.333-2.1,10.235-4.649A102.752,102.752,0,0,0,240.7,271.069" transform="translate(447.487 610.809)" fill="none" stroke="#916446" stroke-linecap="round" stroke-linejoin="round" stroke-width="1"/>
            <path id="Path_24070" data-name="Path 24070" d="M195.894,324.125a136.16,136.16,0,0,0,44.821-57.519" transform="translate(441.414 600.752)" fill="none" stroke="#916446" stroke-linecap="round" stroke-linejoin="round" stroke-width="1"/>
            <path id="Path_24071" data-name="Path 24071" d="M257.989,72.615c-9.383,11.549-15.187,26.154-17.718,40.946-3.468,20.291-1.483,41.09,1.077,61.517q6.471,51.66,17.753,102.558a1121.121,1121.121,0,0,0,53.992,174.694c8.267,20.61,15.453,47.154,28.694,65.236,7,9.558,21.179,19.767,35.393,23.9-10.076-21.687-.677-50.9-9.77-73.021-29.4-71.515-72.595-137.857-91.315-212.875C261.187,195.825,249.85,133,257.989,72.615" transform="translate(537.223 163.626)" fill="#ba825b"/>
            <path id="Path_24072" data-name="Path 24072" d="M250.444,124.735c1.656,12.9,3.706,26.31,11.117,37,2.73,3.94,6.3,7.512,10.827,9.09,4.324,1.506,9.588.781,12.747-2.476-2.974-10.108-5.807-20.252-8.429-30.454q-7.94-30.905-13.462-62.366c-.374-2.124-.817-4.4-2.372-5.9-3.1-2.98-8.2-1.028-11.738,1.484-2.749,17.461-.963,35.9,1.311,53.625" transform="translate(558.237 153.5)" fill="#7267cb"/>
            <path id="Path_24073" data-name="Path 24073" d="M192.451,154c102.409,39.463,186.637,77.9,278.824,110.909,15.261,5.462,31.691,9.594,43.5,20.7,10.934,10.287,16.82,24.758,21.527,39.011a379.191,379.191,0,0,1,18.59,98.8,15.122,15.122,0,0,1-2.414,9.344c-4.961,7.261-12.805,4.844-19.091,2.007a177.293,177.293,0,0,1-87.313-86.688c-58.563-31.473-118.148-60-178.712-87.43-29.96-13.566-61.612-27.764-79.485-55.977a50.677,50.677,0,0,1-8.25-24.488c-.563-11.52,3.055-20.258,12.828-26.193" transform="translate(404.624 347.022)" fill="#db996b"/>
            <path id="Path_24074" data-name="Path 24074" d="M455.173,299.635c-7.378-8.68-17.181-14.917-27.078-20.558-79.215-45.156-175.332-61.495-248.08-114.264a54.8,54.8,0,0,0,6.845,15.512c17.874,28.213,49.526,42.41,79.482,55.977,60.564,27.429,120.152,55.957,178.715,87.43a177.533,177.533,0,0,0,69.4,77.247,253.039,253.039,0,0,1-39.482-63.18c-5.719-13.208-10.482-27.2-19.806-38.165" transform="translate(405.636 371.381)" fill="#ba825b"/>
            <path id="Path_24075" data-name="Path 24075" d="M214.57,209.031c15.157-.817,28.945-13.049,31.557-28" transform="translate(483.498 407.921)" fill="none" stroke="#916446" stroke-linecap="round" stroke-linejoin="round" stroke-width="1"/>
            <path id="Path_24076" data-name="Path 24076" d="M221.226,214.638c13.729-2.961,24.4-16.452,24.107-30.494" transform="translate(498.496 414.938)" fill="none" stroke="#916446" stroke-linecap="round" stroke-linejoin="round" stroke-width="1"/>
            <path id="Path_24077" data-name="Path 24077" d="M315.37,365c-13.039-61.556-48.966-119.218-45.726-182.056.686-13.322,3.793-27.686,14.012-36.265,1.3-1.087,2.883-2.111,4.555-1.861,1.91.286,3.162,2.082,4.18,3.719,55.059,88.471,111.567,181.048,121.815,284.751,1.288,13.033,1.392,27.517-7,37.573-7.867,9.428-21.716,12.33-33.662,9.483-51.1-12.167-49.49-74.335-58.176-115.344" transform="translate(607.135 326.245)" fill="#db996b"/>
            <path id="Path_24078" data-name="Path 24078" d="M275.463,171.124c2.769,14.562,9.588,28,16.485,41.119,3.175,6.045,6.477,12.193,11.471,16.852s12.07,7.639,18.71,6.041a16.937,16.937,0,0,0,8.377-4.965c-15.6-27.715-32.387-54.864-49.047-81.633-1.018-1.64-2.271-3.436-4.177-3.722a3.689,3.689,0,0,0-1.35.072,62.009,62.009,0,0,0-.469,26.235" transform="translate(618.065 326.246)" fill="#7267cb"/>
            <path id="Path_24079" data-name="Path 24079" d="M309.667,274.066c-13.2-23.391-21.378-49.314-27.263-75.52a480.387,480.387,0,0,1-8.348-48.911c-2.8,6.975-4.021,14.825-4.411,22.373-3.237,62.841,32.689,120.5,45.726,182.057,8.686,41.011,7.076,103.176,58.176,115.347a38.787,38.787,0,0,0,11.559.885c-22.464-47.8-23.922-106.117-49.269-153.508-7.876-14.731-17.958-28.177-26.17-42.723" transform="translate(607.136 337.18)" fill="#ba825b"/>
            <path id="Path_24080" data-name="Path 24080" d="M264.584,190.71a20.147,20.147,0,0,0,3.624-5.436c-25.223-10.3-51.221-20.743-78.532-31.271a26.381,26.381,0,0,0-8.878,8.52c16.345,14.868,34.01,28.766,55.32,33.62,9.864,2.248,21.508,1.91,28.467-5.433" transform="translate(407.398 347.02)" fill="#7267cb"/>
            <path id="Path_24081" data-name="Path 24081" d="M243.447,216.519c11.445,18.651,51.025,21.27,71.632,13.908,15.076,22.077,56.455,54.044,76.014,49.47,14.324,24.7,24.068,34.876,52.623,35.234" transform="translate(548.567 487.889)" fill="none" stroke="#916446" stroke-linecap="round" stroke-linejoin="round" stroke-width="1"/>
            <path id="Path_24082" data-name="Path 24082" d="M281.1,201.614a49.944,49.944,0,0,0,50.267,8.127" transform="translate(633.421 454.304)" fill="none" stroke="#916446" stroke-linecap="round" stroke-linejoin="round" stroke-width="1"/>
            <path id="Path_24083" data-name="Path 24083" d="M279.094,201.635a45.309,45.309,0,0,0,43.842-7.73" transform="translate(628.892 436.933)" fill="none" stroke="#916446" stroke-linecap="round" stroke-linejoin="round" stroke-width="1"/>
            <path id="Path_24084" data-name="Path 24084" d="M408.537,451.881c-23.98-21.739-46.568-50.29-44.32-82.576.654-9.418,3.439-18.57,6.959-27.328,3.042-7.561,6.7-14.982,11.969-21.2,16.543-19.487,44.714-23.16,70.168-25.483-21.2-35.644-24.719-81.756-4.1-117.741s67.077-56.826,106.244-43.2c-3.165-14.054,10.124-30.331,21.6-39.037,10.45-7.928,22.978-13.853,36.1-13.836s26.7,6.962,32.016,18.954c12.324-22.728,38.682-44.616,62.711-54.165S757.929,33.369,783.725,31.6c21.67-1.487,44-1.825,64.439,5.547,43.461,15.681,68.278,63.111,73.672,109,28.4-7.59,61.462-6.054,86.558,9.262a110.383,110.383,0,0,1,49.721,69.934c59.51-18.7,130.143,9.884,156.957,66.205s6.084,130.9-45.953,165.308c23.408,4.421,43.982,21.605,55.365,42.531s15.122,45.29,14.812,69.111c-1.213,94.262-69.67,183.758-160.331,209.606-19.383,5.524-39.411,8.371-59.367,11.2-26.713,3.79-53.482,7.583-80.442,8.725a412.515,412.515,0,0,1-177.18-31.964c-47.317-19.969-90.918-48.979-126.844-85.683-8.159-8.332-16-17.122-25.529-23.84-11.442-8.068-24.826-12.808-37.521-18.71-22.991-10.69-43.91-25.311-64.38-40.273-24.885-18.189-49.532-37.215-69.309-60.857s-27.751-54.07-29.856-84.821" transform="translate(820.354 69.264)" fill="#6ac967"/>
            <g id="Group_6858" data-name="Group 6858" transform="translate(1851.456 640.845)" opacity="0.5" style="mix-blend-mode: multiply;isolation: isolate">
              <g id="Group_6857" data-name="Group 6857">
                <g id="Group_6856" data-name="Group 6856" clip-path="url(#clip-path-11)">
                  <path id="Path_24085" data-name="Path 24085" d="M682.688,317.31a182.067,182.067,0,0,1-54.747-27.8,84.385,84.385,0,0,0,29.726,51.975c-37.16-10.541-61.283-46.448-75.685-82.287-7.961-19.81-14.048-40.917-12.7-62.22-.576,9.07,27.094,21.827,32.41,27.982,8.032,9.3,11.448,21.677,17.8,32.452a157.435,157.435,0,0,0,63.193,59.894" transform="translate(-569.095 -196.979)" fill="#7267cb"/>
                </g>
              </g>
            </g>
            <g id="Group_6861" data-name="Group 6861" transform="translate(1223.455 190.297)" opacity="0.5" style="mix-blend-mode: multiply;isolation: isolate">
              <g id="Group_6860" data-name="Group 6860">
                <g id="Group_6859" data-name="Group 6859" clip-path="url(#clip-path-12)">
                  <path id="Path_24086" data-name="Path 24086" d="M399.308,304.5a95.988,95.988,0,0,1,82.768-27.744c-11.289-41.7.342-90.326,33.457-118.067s87.313-29.082,118.216,1.106c1.441-27.263,37.872-45.325,60.447-29.97C713.42,94.663,743.37,58.115,783.448,58.5c43.331.413,74.983,48.927,68.951,91.835,51.087-16.908,112.936,13.7,130.488,64.569,44.99,1.37,95.449,18.124,112.858,59.637,18.3,43.617-7.756,92.105-32.924,132.157,17.083-1.259,32.959,11.276,40.149,26.82s7.232,33.431,5.339,50.453c-11.6,104.266-97.785,195.74-201.183,213.516-82.6,14.2-166.867-14.926-240.473-55.017A819.936,819.936,0,0,1,468.2,490.763C421.336,442.012,334.329,372.01,399.308,304.5" transform="translate(-376.063 -58.493)" fill="#7267cb"/>
                </g>
              </g>
            </g>
            <path id="Path_24087" data-name="Path 24087" d="M582.071,581.949c31.831-4.028,59.738-22.819,84.776-42.885,52.577-42.14,98.891-93.159,132.869-151.117a1192.36,1192.36,0,0,1-32.231-180.013l-42.193,11.341C654.383,313.52,573.007,400.3,481.54,474.745c10.739,6.028,11.667,22.054,17.932,33.2,6.585,11.715,10.443,24.738,14.045,37.69q3.279,11.775,6.308,23.622c18.8,10.551,40.836,15.4,62.246,12.688" transform="translate(1085.07 468.542)" fill="#ba825b"/>
            <path id="Path_24088" data-name="Path 24088" d="M410.635,252.817c11.517,74.827,32.663,147.854,56.7,219.649,15.258,45.569,32.13,91.549,61.3,129.749a238.484,238.484,0,0,0,49.255,48.1c27.679,20.109,62.324,25.753,95.5,17.389,100.447-25.334,150.327-93.963,194.923-171.06,22.383-38.692,41.2-81.093,42.141-125.777.742-35.169-9.61-69.511-19.858-103.163-6.461-21.2-13.108-42.8-25.835-60.948-20.076-28.636-53.169-45.527-86.678-55.544-63.987-19.126-132.681-16.914-198.479-5.485-34.144,5.928-68.183,14.4-99.2,29.856s-52.506,47.177-69.758,77.231" transform="translate(925.297 308.666)" fill="#db996b"/>
            <path id="Path_24089" data-name="Path 24089" d="M470.168,234.723c7.782-2.873,15.652-5.791,22.5-10.476a118.765,118.765,0,0,1-15.551,28.636c-7.538-2.2-31.5-1.968-34.681-7.343,8.289-4.844,18.632-7.457,27.731-10.817" transform="translate(996.958 505.303)" fill="#ba825b"/>
            <g id="Group_6867" data-name="Group 6867" transform="translate(1366.397 697.043)" opacity="0.49">
              <g id="Group_6866" data-name="Group 6866">
                <g id="Group_6865" data-name="Group 6865" clip-path="url(#clip-path-13)">
                  <path id="Path_24090" data-name="Path 24090" d="M476.555,269.972a55.718,55.718,0,0,0-55.717-55.717c-.283,0-.556.039-.839.042,8.055,28.223,16.924,56.227,26.235,84.043q2.952,8.818,6.012,17.64a55.64,55.64,0,0,0,24.309-46.009" transform="translate(-419.999 -214.255)" fill="#da6b58"/>
                  <g id="Group_6864" data-name="Group 6864" opacity="0.49">
                    <g id="Group_6863" data-name="Group 6863">
                      <g id="Group_6862" data-name="Group 6862" clip-path="url(#clip-path-13)">
                        <path id="Path_24091" data-name="Path 24091" d="M476.555,269.972a55.718,55.718,0,0,0-55.717-55.717c-.283,0-.556.039-.839.042,8.055,28.223,16.924,56.227,26.235,84.043q2.952,8.818,6.012,17.64a55.64,55.64,0,0,0,24.309-46.009" transform="translate(-419.999 -214.255)" fill="#da6b58"/>
                      </g>
                    </g>
                  </g>
                </g>
              </g>
            </g>
            <path id="Path_24092" data-name="Path 24092" d="M452.922,212.11c2.007,11.022,3.686,22.272,2.385,33.4s-5.915,22.269-14.581,29.368a55.929,55.929,0,0,0,37.384,3.458" transform="translate(993.1 477.955)" fill="none" stroke="#874635" stroke-linecap="round" stroke-linejoin="round" stroke-width="1.5"/>
            <path id="Path_24093" data-name="Path 24093" d="M444.412,265.936c3.185-16.309,17.669-31.1,34.261-30.227,7.3.381,14.129,3.582,20.636,6.913A377.558,377.558,0,0,1,568.663,288.4c2.743,2.277,5.667,5.02,5.814,8.582.107,2.557-1.282,4.913-2.534,7.151-7.5,13.391-11.784,28.457-19.891,41.487s-21.788,24.358-37.1,23.271c-13-.914-23.714-10.4-32.185-20.307-18.326-21.439-44.245-52.473-38.353-82.644" transform="translate(999.486 531.049)" fill="#b25447"/>
            <g id="Group_6870" data-name="Group 6870" transform="translate(1604.642 652.645)" opacity="0.49">
              <g id="Group_6869" data-name="Group 6869">
                <g id="Group_6868" data-name="Group 6868" clip-path="url(#clip-path-15)">
                  <path id="Path_24094" data-name="Path 24094" d="M604.663,256.325a55.717,55.717,0,1,1-55.717-55.717,55.716,55.716,0,0,1,55.717,55.717" transform="translate(-493.23 -200.608)" fill="#da6b58"/>
                </g>
              </g>
            </g>
            <g id="Group_6873" data-name="Group 6873" transform="translate(1335.933 445.648)" opacity="0.3" style="mix-blend-mode: multiply;isolation: isolate">
              <g id="Group_6872" data-name="Group 6872">
                <g id="Group_6871" data-name="Group 6871" clip-path="url(#clip-path-16)">
                  <path id="Path_24095" data-name="Path 24095" d="M864.755,206.757c-20.08-28.636-53.169-45.524-86.679-55.541C714.09,132.09,645.4,134.3,579.6,145.728c-34.147,5.931-68.183,14.4-99.2,29.859s-52.5,47.177-69.758,77.231c10.9,70.77,30.406,139.926,52.821,207.95a257.167,257.167,0,0,0,43.354-29.3c7.528-6.311,14.747-13.091,23.151-18.176,22.907-13.859,51.809-13.43,78.012-7.925s51.351,15.6,77.787,19.845c58.088,9.331,127.817,1.721,176.894-30.721a417.453,417.453,0,0,0,47.557-37.023c-1.662-30.507-10.677-60.4-19.624-89.763-6.458-21.2-13.108-42.8-25.831-60.951" transform="translate(-410.635 -136.983)" fill="#db996b"/>
                </g>
              </g>
            </g>
            <path id="Path_24096" data-name="Path 24096" d="M601.607,183.458c19.335-9.627,45.888-6.939,58.716,10.437,9.578,12.971,9.711,30.539,7.785,46.549-2.329,19.383-7.275,38.884-18.1,55.128s-28.255,28.883-47.717,30.4-40.2-10.017-46.093-28.629c-2.033-6.429-2.3-13.29-1.978-20.024,1.676-35.386,13.209-76.837,47.388-93.855" transform="translate(1248.586 400.977)" fill="#db996b"/>
            <path id="Path_24097" data-name="Path 24097" d="M586.953,191.937c9.835-4.9,23.343-3.53,29.869,5.309,4.874,6.6,4.942,15.535,3.963,23.681-1.187,9.858-3.7,19.78-9.21,28.044S597.2,263.663,587.3,264.434s-20.454-5.1-23.45-14.565a29.167,29.167,0,0,1-1.005-10.186c.853-18,6.718-39.089,24.107-47.746" transform="translate(1268.147 426.183)" fill="#ba825b"/>
            <path id="Path_24098" data-name="Path 24098" d="M481.559,244.249c16.8-2.085,33.63,2.557,49.926,7.151q11.546,3.255,23.089,6.513c8.621,2.43,18.944,6.832,19.549,15.772.4,5.879-3.852,10.957-8.052,15.089-12.138,11.946-26.391,22.126-42.6,27.367s-34.515,5.176-49.756-2.417c-13.326-6.637-28.5-23.86-28.6-39.788-.114-17.308,21.413-27.823,36.441-29.687" transform="translate(1002.999 549.217)" fill="#da6b58"/>
            <path id="Path_24099" data-name="Path 24099" d="M497.621,275.5c17.844-4.171,34.9-11.113,51.4-19.152q-8.764-2.469-17.532-4.945c-16.3-4.594-33.125-9.236-49.926-7.151-15.027,1.864-36.554,12.379-36.441,29.687a27.633,27.633,0,0,0,.416,4.3c17.236,2.564,35.061,1.236,52.086-2.743" transform="translate(1002.999 549.217)" fill="#fff"/>
            <path id="Path_24100" data-name="Path 24100" d="M401.232,447.65c23.453,26.1,63.121,33.509,97,24.345s62.383-32.559,84.736-59.611c3.344-4.047,6.721-8.56,6.988-13.8,26.284-3.065,49.769.088,75.048,7.912,18.121,5.609,35.338,13.9,53.537,19.243,39.193,11.507,81.48,8.823,121.07-1.23,31-7.873,61.234-20.4,86.36-40.192,12.552-9.887,24.042-22.012,29.332-37.088,2.8-8,3.758-16.5,4.695-24.924,4.392-39.59-5.082-79.017-16.273-117.247-7.209-24.615-17.776-49.87-38.494-64.992C876.918,119.4,836.9,123.371,805,137.894s-58.775,38-88.787,56.1c-41.434,24.992-88.3,39.434-131.562,61.1-37.007,18.538-71.508,42.42-110.434,56.484-22.874,8.267-47.271,13.143-68.148,25.623-4.724,2.821-9.331,6.12-12.379,10.7-3.406,5.108-4.577,11.354-5.3,17.451-3.3,27.822-5.879,61.452,12.844,82.293" transform="translate(869.933 283.413)" fill="#65a599"/>
            <path id="Path_24101" data-name="Path 24101" d="M957.1,323.548a254.544,254.544,0,0,0-10.759-107.412c-5.095-15.671-11.907-31.138-22.92-43.4-16.738-18.645-41.275-27.972-65.047-35.9Q837.856,130,817.1,123.9c-12.76-3.751-29.326-6.061-36.86,4.9-55,80.009-156.231,116.671-237.266,170.153q-49.01,32.354-98.026,64.7c-12.935,8.537-25.913,17.1-39.821,23.935-4.857,2.388-9.893,4.607-13.967,8.169-8.273,7.245-11.8,19.364-21.332,24.852,25.679,40.052,76.636,62.617,123,51.959,16.95-3.9,32.764-11.517,48.927-17.936,58.976-23.411,122.865-30.871,185.9-38.122,59.042-6.793,120.861-15.915,175.153-40.088,11.455-5.1,22.855-10.769,32.234-19.091s20.62-21.322,22.054-33.779" transform="translate(833.35 272.173)" fill="#79d1c0"/>
            <path id="Path_24102" data-name="Path 24102" d="M371.094,442.265c3.572,5.719,9.005,10.1,14.923,13.329,24.377,13.332,54.308,7.72,81.444,1.757q86.449-19,172.9-37.992c54.471-11.972,109.315-24.058,160.594-45.983,20.678-8.843,42.846-21.875,47.905-43.79,8.735-37.849,10.154-79.69,6.568-118.369-1.594-17.217-4.434-34.573-11.663-50.28s-19.312-29.739-35.276-36.372c-13.644-5.667-75.39-6.123-90.026-4.1-42.589,5.9-35.289,27.79-69.631,53.66s-64.839,56.436-97.649,84.225c-60.824,51.513-130.439,94.3-179.369,157.221-2.59,3.328-5.157,6.786-6.451,10.8-1.744,5.407,2.726,11.071,5.736,15.893" transform="translate(822.391 268.978)" fill="#65a599"/>
            <g id="Group_6876" data-name="Group 6876" transform="translate(1187.359 504.976)" opacity="0.5" style="mix-blend-mode: multiply;isolation: isolate">
              <g id="Group_6875" data-name="Group 6875">
                <g id="Group_6874" data-name="Group 6874" clip-path="url(#clip-path-17)">
                  <path id="Path_24103" data-name="Path 24103" d="M790.99,162.431c-20.805-3.784-41.77-7.584-62.906-7.183-24.146.452-47.827,6.363-71.189,12.473q-72.546,18.964-144.276,40.9C462.474,247.616,410.636,284.87,371.807,334.8c-2.586,3.328-5.153,6.786-6.448,10.8-1.744,5.407,2.726,11.071,5.736,15.893,3.569,5.719,9,10.1,14.923,13.329,11.728,6.416,24.745,8.42,38.11,8.133a119.976,119.976,0,0,0,44.17,14c22.757,13.046,51.774,15.652,77.472,8.7,29.42-7.958,54.78-26.658,75.588-49.155,31.3-6.884,63.3-11.211,95.258-15.011,16.641,5.531,32.634,12.965,49.46,17.906,39.2,11.507,81.483,8.823,121.073-1.23,31-7.873,61.234-20.4,86.356-40.192,12.555-9.887,24.045-22.012,29.332-37.088,2.8-8,3.761-16.5,4.695-24.92,2.024-18.212,1.083-36.385-1.578-54.422L790.99,162.431" transform="translate(-364.966 -155.218)" fill="#65a599"/>
                </g>
              </g>
            </g>
            <path id="Path_24104" data-name="Path 24104" d="M768.624,130.981c7.678,6.373,10.189,16.908,12.2,26.681,8.146,39.593,15.447,73.187,14.767,113.6-.569,33.682-7.98,69.67-32.393,92.886-20.34,19.341-49.083,26.658-76.717,31.587-79.271,14.136-162.6,31.287-239.963,53.589-18.84,5.43-40.644,10.759-56.787-.368-14.142-9.75-18.3-28.486-20.922-45.465a1031.577,1031.577,0,0,1-11.26-116.87c-1.145-29.231,14.93-58.365,40.169-73.154,9.978-5.843,21.062-9.487,32.049-13.085C481.5,183.441,533.232,173,584.966,156.058c30.077-9.851,60.216-19.722,91.11-26.59,30.995-6.891,68.115-18.765,92.548,1.513" transform="translate(805.547 269.709)" fill="#aefff1"/>
            <path id="Path_24105" data-name="Path 24105" d="M710.453,139.153c6.442,5.082,8.55,13.479,10.238,21.273,6.832,31.567,12.961,58.352,12.389,90.576-.478,26.856-6.7,55.551-27.178,74.062-17.067,15.421-41.187,21.257-64.37,25.184C575.02,361.522,505.109,375.2,440.189,392.978c-15.8,4.33-34.1,8.579-47.645-.293-11.868-7.776-15.356-22.712-17.555-36.249a783.2,783.2,0,0,1-9.448-93.185c-.96-23.307,12.529-46.536,33.7-58.326,8.371-4.662,17.672-7.564,26.889-10.437,43.409-13.508,86.815-21.833,130.221-35.341,25.236-7.857,50.524-15.723,76.447-21.2,26-5.495,57.151-14.962,77.651,1.207" transform="translate(823.578 293.276)" fill="#842f82"/>
            <g id="Group_6879" data-name="Group 6879" transform="translate(1189.874 423.454)" opacity="0.25">
              <g id="Group_6878" data-name="Group 6878">
                <g id="Group_6877" data-name="Group 6877" clip-path="url(#clip-path-18)">
                  <path id="Path_24106" data-name="Path 24106" d="M439.56,316.161c11.758-2.121,23.476-4.19,35.074-6.155q2.484-.42,4.978-.875,43.271-50.835,86.545-101.67c.075-21.03-2.648-39.909-6.507-59.448Q496.3,229.664,439.56,316.161" transform="translate(-199.399 -89.934)" fill="#fff"/>
                  <path id="Path_24107" data-name="Path 24107" d="M425.582,157.737c-.983.306-1.965.621-2.948.93q-28.026,40.9-56.894,81.219c1.1,18.843,2.8,37.651,5.261,56.377q44.93-76.372,94.633-149.8c-13.352,3.475-26.7,7.118-40.052,11.273" transform="translate(-365.74 -93.422)" fill="#fff"/>
                  <path id="Path_24108" data-name="Path 24108" d="M609.6,139.136c-10.739-8.468-24.4-9.877-38.715-8.534q-85.8,118.716-160.633,244.862,23.815-5.324,47.844-10.082c50.225-74.775,101.5-149.019,156.726-220a21.118,21.118,0,0,0-5.222-6.243" transform="translate(-265.442 -130.16)" fill="#fff"/>
                  <path id="Path_24109" data-name="Path 24109" d="M598.132,133.751c-20.08,5.01-39.853,11.143-59.591,17.288-8.7,2.707-17.4,5.173-26.1,7.548Q440.61,269.651,373.4,383.617c.436.325.865.657,1.327.96,13.544,8.872,31.84,4.623,47.645.3,4.555-1.249,9.187-2.43,13.788-3.64Q469.975,328.621,503.782,276c30.744-47.847,61.569-95.788,94.35-142.252" transform="translate(-348.477 -122.068)" fill="#fff"/>
                </g>
              </g>
            </g>
            <g id="Group_6882" data-name="Group 6882" transform="translate(1376.186 207.032)" opacity="0.5" style="mix-blend-mode: multiply;isolation: isolate">
              <g id="Group_6881" data-name="Group 6881">
                <g id="Group_6880" data-name="Group 6880" clip-path="url(#clip-path-19)">
                  <path id="Path_24110" data-name="Path 24110" d="M481.32,230.741a214.07,214.07,0,0,0,2.544-90.371,168.851,168.851,0,0,1,19.113,54.438,105.944,105.944,0,0,0-79.97-131.171,113.937,113.937,0,0,1,44.6,56.286c-3.165-8.761-32.5-22.819-40.491-28.59,39.46,17.936,54.483,100.785,54.207,139.409" transform="translate(-423.01 -63.637)" fill="#7267cb"/>
                </g>
              </g>
            </g>
            <g id="Group_6885" data-name="Group 6885" transform="translate(1274.171 358.989)" opacity="0.5" style="mix-blend-mode: multiply;isolation: isolate">
              <g id="Group_6884" data-name="Group 6884">
                <g id="Group_6883" data-name="Group 6883" clip-path="url(#clip-path-20)">
                  <path id="Path_24111" data-name="Path 24111" d="M414.226,110.345a69.1,69.1,0,0,0,34.84,38.2,152.293,152.293,0,0,1-57.415,3.881c26.8,3.318,90.472,26.111,107.288-8.533-31.391-5.238-59.852-11.852-84.714-33.548" transform="translate(-391.651 -110.345)" fill="#7267cb"/>
                </g>
              </g>
            </g>
            <g id="Group_6888" data-name="Group 6888" transform="translate(1489.503 176.669)" opacity="0.5" style="mix-blend-mode: multiply;isolation: isolate">
              <g id="Group_6887" data-name="Group 6887">
                <g id="Group_6886" data-name="Group 6886" clip-path="url(#clip-path-21)">
                  <path id="Path_24112" data-name="Path 24112" d="M496.713,142.2c-9.353-21.013-23.535-39.528-38.874-56.667a124.9,124.9,0,0,1,48.644,45.358A130.466,130.466,0,0,0,468.76,54.3c42.931,35.406,70.549,88.78,74.645,144.279-7.818-16.39-15.714-32.911-26.7-47.372,7.671,10.1-5.039,44.158-10.085,53.094,2.59-21.322-1.2-42.537-9.91-62.106" transform="translate(-457.839 -54.304)" fill="#7267cb"/>
                </g>
              </g>
            </g>
            <g id="Group_6891" data-name="Group 6891" transform="translate(1641.863 225.951)" opacity="0.5" style="mix-blend-mode: multiply;isolation: isolate">
              <g id="Group_6890" data-name="Group 6890">
                <g id="Group_6889" data-name="Group 6889" clip-path="url(#clip-path-22)">
                  <path id="Path_24113" data-name="Path 24113" d="M535.116,94.687a84.414,84.414,0,0,1,3.289,55.5A133.924,133.924,0,0,0,582.39,69.451a172.01,172.01,0,0,1-25.861,96.923,151.96,151.96,0,0,0,42.238-42.459,132.509,132.509,0,0,1-71.886,72.361,129.121,129.121,0,0,0,11.305-35.865c-7.235,9.464-21.849,30.646-33.516,21.947,12.122-20.063,41.366-61.69,30.445-87.671" transform="translate(-504.671 -69.454)" fill="#7267cb"/>
                </g>
              </g>
            </g>
            <g id="Group_6894" data-name="Group 6894" transform="translate(1736.041 290.311)" opacity="0.5" style="mix-blend-mode: multiply;isolation: isolate">
              <g id="Group_6893" data-name="Group 6893">
                <g id="Group_6892" data-name="Group 6892" clip-path="url(#clip-path-23)">
                  <path id="Path_24114" data-name="Path 24114" d="M643.66,89.235c1.552,30.132-16.283,57.441-33.382,82.3,28.841-13.849,48.6-40.986,67.142-67.061a180.782,180.782,0,0,1-80.387,105.463l25.161-33.721a196.968,196.968,0,0,1-44.564,25.561q9.453-13.806,18.9-27.6c-16.156,10.059-44.021,25.148-62.91,20.9,19.543-15.889,46.767-21.791,66.7-40.227,14.041-12.981,44.421-44.587,43.338-65.613" transform="translate(-533.619 -89.235)" fill="#7267cb"/>
                </g>
              </g>
            </g>
            <g id="Group_6897" data-name="Group 6897" transform="translate(1842.616 455.646)" opacity="0.5" style="mix-blend-mode: multiply;isolation: isolate">
              <g id="Group_6896" data-name="Group 6896">
                <g id="Group_6895" data-name="Group 6895" clip-path="url(#clip-path-24)">
                  <path id="Path_24115" data-name="Path 24115" d="M647.438,205.213c26.833-16.38,49.158-39.473,67.289-65.158a192.624,192.624,0,0,1-54.314,69.439A59.384,59.384,0,0,0,704.7,196.286,162.234,162.234,0,0,1,650.2,236.2a181.8,181.8,0,0,0,65.213-4.08,365.387,365.387,0,0,1-105.372,31.352q17.007-18.646,34.01-37.293c-25.018,5-52.333,8.351-77.673,5.309,27.172-10.261,54.679-10.176,81.06-26.28" transform="translate(-566.378 -140.055)" fill="#7267cb"/>
                </g>
              </g>
            </g>
            <g id="Group_6900" data-name="Group 6900" transform="translate(385.543 488.303)" opacity="0.6">
              <g id="Group_6899" data-name="Group 6899">
                <g id="Group_6898" data-name="Group 6898" clip-path="url(#clip-path-25)">
                  <path id="Path_24116" data-name="Path 24116" d="M283.949,669.286c-91.227,0-165.442-116.456-165.442-259.6s74.215-259.6,165.442-259.6S449.39,266.546,449.39,409.689s-74.218,259.6-165.442,259.6m0-471.841c-74.586,0-135.264,95.212-135.264,212.244s60.678,212.244,135.264,212.244,135.264-95.212,135.264-212.244S358.535,197.445,283.949,197.445" transform="translate(-118.507 -150.093)" fill="#aefff1"/>
                </g>
              </g>
            </g>
            <g id="Group_6903" data-name="Group 6903" transform="translate(924.226 702.629)" opacity="0.6">
              <g id="Group_6902" data-name="Group 6902">
                <g id="Group_6901" data-name="Group 6901" clip-path="url(#clip-path-26)">
                  <path id="Path_24117" data-name="Path 24117" d="M330.793,252.615c0,20.239-10.456,36.642-23.352,36.642s-23.356-16.4-23.356-36.642,10.456-36.642,23.356-36.642,23.352,16.4,23.352,36.642" transform="translate(-284.088 -215.97)" fill="#aefff1"/>
                </g>
              </g>
            </g>
            <g id="Group_6906" data-name="Group 6906" transform="translate(831.786 838.703)" opacity="0.6">
              <g id="Group_6905" data-name="Group 6905">
                <g id="Group_6904" data-name="Group 6904" clip-path="url(#clip-path-27)">
                  <path id="Path_24118" data-name="Path 24118" d="M302.38,294.441c0,20.239-10.456,36.646-23.352,36.646s-23.356-16.407-23.356-36.646S266.128,257.8,279.028,257.8s23.352,16.4,23.352,36.642" transform="translate(-255.672 -257.796)" fill="#aefff1"/>
                </g>
              </g>
            </g>
            <g id="Group_6909" data-name="Group 6909" transform="translate(748.449 872.642)" opacity="0.6">
              <g id="Group_6908" data-name="Group 6908">
                <g id="Group_6907" data-name="Group 6907" clip-path="url(#clip-path-26)">
                  <path id="Path_24119" data-name="Path 24119" d="M276.763,304.875c0,20.239-10.456,36.642-23.352,36.642s-23.356-16.4-23.356-36.642,10.456-36.646,23.356-36.646,23.352,16.407,23.352,36.646" transform="translate(-230.058 -268.232)" fill="#aefff1"/>
                </g>
              </g>
            </g>
            <path id="Path_24120" data-name="Path 24120" d="M300.483,252.237c-3.709-28.714-19.832-49.981-38.493-50.856-17.272-.81-32.039,15.144-38.471,38.005a69.327,69.327,0,0,0-10.791-22.793c-15.369-20.581-38.542-20.1-53.543,1.139-17.155,24.293-17.936,65.841-2,91.676L221.421,413.53c1.155,1.871,3.068,1.871,4.223,0l64.234-104.123c8.784-14.331,13.436-35.266,10.606-57.171" transform="translate(328.432 453.711)" fill="#aefff1"/>
            <ellipse id="Ellipse_103" data-name="Ellipse 103" cx="242.612" cy="380.686" rx="242.612" ry="380.686" transform="translate(308.373 367.212)" fill="none" stroke="#aefff1" stroke-linecap="round" stroke-linejoin="round" stroke-width="1"/>
            <g id="Group_6912" data-name="Group 6912" transform="translate(271.397 663.361)" opacity="0.6">
              <g id="Group_6911" data-name="Group 6911">
                <g id="Group_6910" data-name="Group 6910" clip-path="url(#clip-path-29)">
                  <path id="Path_24121" data-name="Path 24121" d="M300.7,653.5c-5.635,33.1-28.681,51.289-48.725,37.709C164.595,632.01,101.392,505.937,86.671,355.49c-2.157-22.031-3.25-44.593-3.25-67.054q0-15.9.725-31.756c1.584-34.622,22.376-58.989,43.962-51.38l1.7.6c17.526,6.178,29.319,31.6,28.066,59.715q-.508,11.38-.508,22.822c0,16.579.807,33.216,2.394,49.444,10.782,110.19,56.95,202.6,120.829,246.329C297,595.439,305.783,623.665,301.163,650.8Z" transform="translate(-83.422 -203.901)" fill="#aefff1"/>
                </g>
              </g>
            </g>
            <g id="Group_6915" data-name="Group 6915" transform="translate(597.572 332.113)" opacity="0.6">
              <g id="Group_6914" data-name="Group 6914">
                <g id="Group_6913" data-name="Group 6913" clip-path="url(#clip-path-30)">
                  <path id="Path_24122" data-name="Path 24122" d="M375.038,575.674l-1.662-.4c-17.841-4.3-30.672-28.587-30.646-56.911,0-.166,0-.329,0-.495,0-137.017-55.469-257.9-135.54-303.455-16.683-9.49-26.29-36.948-22.8-64.25l.335-2.619c4.389-34.284,27.24-53.914,48.175-41.926,108.6,62.2,183.778,226.305,183.778,412.249q0,1.308-.007,2.622c-.13,34.4-19.969,60.4-41.636,55.183" transform="translate(-183.68 -102.083)" fill="#aefff1"/>
                </g>
              </g>
            </g>
            <ellipse id="Ellipse_104" data-name="Ellipse 104" cx="313.042" cy="491.195" rx="313.042" ry="491.195" transform="translate(237.942 256.703)" fill="none" stroke="#aefff1" stroke-linecap="round" stroke-linejoin="round" stroke-width="1"/>
            <ellipse id="Ellipse_105" data-name="Ellipse 105" cx="398.578" cy="625.408" rx="398.578" ry="625.408" transform="translate(153.385 122.491)" fill="none" stroke="#aefff1" stroke-linecap="round" stroke-linejoin="round" stroke-width="1"/>
            <g id="Group_6918" data-name="Group 6918" transform="translate(588.388 78.483)" opacity="0.6">
              <g id="Group_6917" data-name="Group 6917">
                <g id="Group_6916" data-name="Group 6916" clip-path="url(#clip-path-31)">
                  <path id="Path_24123" data-name="Path 24123" d="M524.532,522.647c-18.437,8.423-37.752-6.806-44.815-34.824-21.7-86.073-56.5-162.527-101.9-223.309-48.013-64.276-105.112-107.074-166.727-125.357-18.821-5.586-31.886-32.585-30.067-62.506v-.026c2.072-34.118,22.425-57.835,43.888-51.464,74.225,22.028,143.03,73.607,200.9,151.085,54.806,73.372,96.783,165.761,122.9,269.8C556.649,477.667,545.328,513.151,524.532,522.647Z" transform="translate(-180.857 -24.123)" fill="#aefff1"/>
                </g>
              </g>
            </g>
            <g id="Group_6921" data-name="Group 6921" transform="translate(118.752 162.51)" opacity="0.6">
              <g id="Group_6920" data-name="Group 6920">
                <g id="Group_6919" data-name="Group 6919" clip-path="url(#clip-path-32)">
                  <path id="Path_24124" data-name="Path 24124" d="M283.267,80.471c9.139,26.5,3.732,59.338-12.229,76.086C222.006,208.018,181.73,277.535,153.455,360c-29.9,87.215-44.5,183.826-42.876,282.188.495,30.045-13.563,55.785-32.585,59.315l-.016,0c-21.693,4.028-40.764-22.178-41.33-56.439C34.692,526.578,52.293,410.16,88.333,305.036c34.127-99.555,82.814-183.449,142.109-245.474,18.023-18.847,42.515-8.976,52.824,20.909" transform="translate(-36.503 -49.951)" fill="#aefff1"/>
                </g>
              </g>
            </g>
            <g id="Group_6924" data-name="Group 6924" transform="translate(202.367 1103.358)" opacity="0.6">
              <g id="Group_6923" data-name="Group 6923">
                <g id="Group_6922" data-name="Group 6922" clip-path="url(#clip-path-33)">
                  <path id="Path_24125" data-name="Path 24125" d="M78.749,348.9l.026-.026c15.922-16.657,37.254-11.416,49.288,11.933A547.757,547.757,0,0,0,162.4,418.69c76.951,112.734,181.64,166.61,285.545,149.032,19.1-3.227,36.688,16.475,40.527,46.005,4.33,33.285-10.4,65.548-31.918,69.241C331.2,704.476,204.812,639.568,111.936,503.5a660.832,660.832,0,0,1-41.695-70.366c-13.56-26.371-9.461-65.447,8.507-84.242" transform="translate(-62.203 -339.146)" fill="#aefff1"/>
                </g>
              </g>
            </g>
            <path id="Path_24126" data-name="Path 24126" d="M53.855,491.469l18.163-2.2-18.163-2.2L51.6,484.826l-2.2-18.163-2.2,18.163-2.251,2.248-18.163,2.2,18.163,2.2,2.251,2.251,2.2,18.16,2.2-18.16Z" transform="translate(60.383 1051.546)" fill="#aefff1"/>
            <path id="Path_24127" data-name="Path 24127" d="M724.028,59.01l18.164-2.2-18.164-2.2-2.251-2.248-2.2-18.163-2.2,18.163-2.251,2.248-18.163,2.2,18.163,2.2,2.251,2.251,2.2,18.16,2.2-18.16Z" transform="translate(1570.507 77.071)" fill="#aefff1"/>
            <path id="Path_24128" data-name="Path 24128" d="M742.68,239.112l18.164-2.2-18.164-2.2-2.251-2.248-2.2-18.163-2.2,18.163-2.251,2.248-18.163,2.2,18.163,2.2,2.251,2.251,2.2,18.16,2.2-18.16Z" transform="translate(1612.536 482.902)" fill="#aefff1"/>
            <path id="Path_24129" data-name="Path 24129" d="M737.928,157.912l18.163-2.2-18.163-2.2-2.251-2.248-2.2-18.163-2.2,18.163-2.251,2.248-18.164,2.2,18.164,2.2,2.251,2.251,2.2,18.16,2.2-18.16Z" transform="translate(1601.827 299.931)" fill="#aefff1"/>
            <path id="Path_24130" data-name="Path 24130" d="M53.855,156.435l18.163-2.2-18.163-2.2L51.6,149.792l-2.2-18.163-2.2,18.163L44.96,152.04l-18.163,2.2,18.163,2.2,2.251,2.251,2.2,18.16,2.2-18.16Z" transform="translate(60.383 296.602)" fill="#aefff1"/>
            <path id="Path_24131" data-name="Path 24131" d="M60.8,387.846l18.163-2.2-18.163-2.2L58.553,381.2l-2.2-18.163-2.2,18.163-2.251,2.248-18.163,2.2,18.163,2.2,2.251,2.251,2.2,18.16,2.2-18.16Z" transform="translate(76.043 818.05)" fill="#aefff1"/>
            <path id="Path_24132" data-name="Path 24132" d="M37.644,259.02l18.163-2.2-18.163-2.2-2.251-2.248-2.2-18.163L31,252.377l-2.251,2.248-18.163,2.2,18.163,2.2L31,261.272l2.2,18.16,2.2-18.16Z" transform="translate(23.854 527.761)" fill="#aefff1"/>
            <path id="Path_24133" data-name="Path 24133" d="M341.192,106.8l18.163-2.2-18.163-2.2-2.251-2.248-2.2-18.163-2.2,18.163L332.3,102.4l-18.163,2.2,18.163,2.2,2.251,2.251,2.2,18.16,2.2-18.16Z" transform="translate(707.849 184.758)" fill="#aefff1"/>
            <path id="Path_24134" data-name="Path 24134" d="M250.164,471.765l18.163-2.2-18.163-2.2-2.251-2.248-2.2-18.163-2.2,18.163-2.251,2.248-18.163,2.2,18.163,2.2,2.251,2.251,2.2,18.16,2.2-18.16Z" transform="translate(502.732 1007.146)" fill="#aefff1"/>
            <path id="Path_24135" data-name="Path 24135" d="M628.439,65.648a6.372,6.372,0,1,1-6.37-6.37,6.369,6.369,0,0,1,6.37,6.37" transform="translate(1387.368 133.573)" fill="#aefff1"/>
            <path id="Path_24136" data-name="Path 24136" d="M657.536,31.965a6.372,6.372,0,1,1-6.37-6.37,6.37,6.37,0,0,1,6.37,6.37" transform="translate(1452.934 57.674)" fill="#aefff1"/>
            <path id="Path_24137" data-name="Path 24137" d="M570.667,31.965a6.372,6.372,0,1,1-6.37-6.37,6.37,6.37,0,0,1,6.37,6.37" transform="translate(1257.189 57.674)" fill="#aefff1"/>
            <path id="Path_24138" data-name="Path 24138" d="M700.879,233.06a6.372,6.372,0,1,1-6.37-6.37,6.369,6.369,0,0,1,6.37,6.37" transform="translate(1550.6 510.808)" fill="#aefff1"/>
            <path id="Path_24139" data-name="Path 24139" d="M59.89,440.472a6.372,6.372,0,1,1-6.37-6.37,6.372,6.372,0,0,1,6.37,6.37" transform="translate(106.238 978.177)" fill="#aefff1"/>
            <path id="Path_24140" data-name="Path 24140" d="M359.08,42.063a6.372,6.372,0,1,1-6.37-6.37,6.372,6.372,0,0,1,6.37,6.37" transform="translate(780.413 80.428)" fill="#aefff1"/>
            <path id="Path_24141" data-name="Path 24141" d="M44.532,31.965a6.372,6.372,0,1,1-6.37-6.37,6.37,6.37,0,0,1,6.37,6.37" transform="translate(71.631 57.674)" fill="#aefff1"/>
            <path id="Path_24142" data-name="Path 24142" d="M32.862,166.093a6.372,6.372,0,1,1-6.37-6.37,6.37,6.37,0,0,1,6.37,6.37" transform="translate(45.335 359.909)" fill="#aefff1"/>
            <path id="Path_24143" data-name="Path 24143" d="M92.247,38.615a6.372,6.372,0,1,1-6.37-6.37,6.369,6.369,0,0,1,6.37,6.37" transform="translate(179.149 72.659)" fill="#aefff1"/>
            <path id="Path_24144" data-name="Path 24144" d="M734.865,318.536a6.372,6.372,0,1,1-6.37-6.37,6.369,6.369,0,0,1,6.37,6.37" transform="translate(1627.182 703.414)" fill="#aefff1"/>
            <path id="Path_24145" data-name="Path 24145" d="M747.8,471.075a6.372,6.372,0,1,1-6.37-6.37,6.37,6.37,0,0,1,6.37,6.37" transform="translate(1656.337 1047.135)" fill="#aefff1"/>
            <path id="Path_24146" data-name="Path 24146" d="M749.763,381.351a6.372,6.372,0,1,1-6.37-6.37,6.37,6.37,0,0,1,6.37,6.37" transform="translate(1660.752 844.957)" fill="#aefff1"/>
            <path id="Path_24147" data-name="Path 24147" d="M687.035,100.305a6.372,6.372,0,1,1-6.373-6.37,6.37,6.37,0,0,1,6.373,6.37" transform="translate(1519.405 211.667)" fill="#aefff1"/>
            <path id="Path_24148" data-name="Path 24148" d="M685.077,270.929a6.372,6.372,0,1,1-6.37-6.37,6.369,6.369,0,0,1,6.37,6.37" transform="translate(1514.992 596.14)" fill="#aefff1"/>
            <path id="Path_24149" data-name="Path 24149" d="M146.831,24.452a6.372,6.372,0,1,1-6.37-6.37,6.37,6.37,0,0,1,6.37,6.37" transform="translate(302.145 40.745)" fill="#aefff1"/>
            <path id="Path_24150" data-name="Path 24150" d="M32.862,420.864a6.372,6.372,0,1,1-6.37-6.37,6.369,6.369,0,0,1,6.37,6.37" transform="translate(45.335 933.993)" fill="#aefff1"/>
            <path id="Path_24151" data-name="Path 24151" d="M30.279,307.593a6.372,6.372,0,1,1-6.37-6.37,6.37,6.37,0,0,1,6.37,6.37" transform="translate(39.514 678.756)" fill="#aefff1"/>
            <path id="Path_24152" data-name="Path 24152" d="M196.423,485.979a6.372,6.372,0,1,1-6.37-6.37,6.37,6.37,0,0,1,6.37,6.37" transform="translate(413.892 1080.719)" fill="#aefff1"/>
            <path id="Path_24153" data-name="Path 24153" d="M309.964,58.716a6.372,6.372,0,1,1-6.37-6.37,6.37,6.37,0,0,1,6.37,6.37" transform="translate(669.738 117.953)" fill="#aefff1"/>
            <path id="Path_24154" data-name="Path 24154" d="M96.164,450.485a6.372,6.372,0,1,1-6.37-6.37,6.37,6.37,0,0,1,6.37,6.37" transform="translate(187.975 1000.739)" fill="#aefff1"/>
            <path id="Path_24155" data-name="Path 24155" d="M266.457,426.535a6.372,6.372,0,1,1-6.37-6.37,6.372,6.372,0,0,1,6.37,6.37" transform="translate(571.702 946.772)" fill="#aefff1"/>
            <path id="Path_24156" data-name="Path 24156" d="M144.872,478.024a6.372,6.372,0,1,1-6.37-6.37,6.372,6.372,0,0,1,6.37,6.37" transform="translate(297.731 1062.794)" fill="#aefff1"/>
            <path id="Path_24157" data-name="Path 24157" d="M57.932,83.316a6.372,6.372,0,1,1-6.37-6.37,6.369,6.369,0,0,1,6.37,6.37" transform="translate(101.826 173.385)" fill="#aefff1"/>
            <path id="Path_24158" data-name="Path 24158" d="M736.823,277.2a6.372,6.372,0,1,1-6.37-6.37,6.37,6.37,0,0,1,6.37,6.37" transform="translate(1631.594 610.275)" fill="#aefff1"/>
            <path id="Path_24159" data-name="Path 24159" d="M264.27,31.965a6.372,6.372,0,1,1-6.37-6.37,6.37,6.37,0,0,1,6.37,6.37" transform="translate(566.774 57.674)" fill="#aefff1"/>
            <path id="Path_24160" data-name="Path 24160" d="M32.237,80.911a6.372,6.372,0,1,1-6.37-6.373,6.369,6.369,0,0,1,6.37,6.373" transform="translate(43.926 167.959)" fill="#aefff1"/>
            <path id="Path_24161" data-name="Path 24161" d="M678.836,199.184a6.372,6.372,0,1,1-6.37-6.37,6.37,6.37,0,0,1,6.37,6.37" transform="translate(1500.929 434.474)" fill="#aefff1"/>
            <path id="Path_24162" data-name="Path 24162" d="M700.879,144.467a6.372,6.372,0,1,1-6.37-6.37,6.369,6.369,0,0,1,6.37,6.37" transform="translate(1550.6 311.179)" fill="#aefff1"/>
            <path id="Path_24163" data-name="Path 24163" d="M728.6,93.731a6.372,6.372,0,1,1-6.37-6.37,6.369,6.369,0,0,1,6.37,6.37" transform="translate(1613.073 196.853)" fill="#aefff1"/>
          </g>
        </g>
      </g>
    </g>
  </g>
</svg>
