<svg xmlns="http://www.w3.org/2000/svg" xmlns:xlink="http://www.w3.org/1999/xlink" width="2440" height="1578" viewBox="0 0 2440 1578">
  <defs>
    <clipPath id="clip-path">
      <rect id="Rectangle_1443" data-name="Rectangle 1443" width="2440" height="1628.882" fill="none"/>
    </clipPath>
    <clipPath id="clip-path-3">
      <rect id="Rectangle_1433" data-name="Rectangle 1433" width="2360.428" height="1557.193" fill="none"/>
    </clipPath>
    <clipPath id="clip-path-5">
      <rect id="Rectangle_1435" data-name="Rectangle 1435" width="1650.061" height="1211.799" fill="none"/>
    </clipPath>
    <clipPath id="clip-path-6">
      <rect id="Rectangle_1436" data-name="Rectangle 1436" width="1577.951" height="1188.8" fill="none"/>
    </clipPath>
    <clipPath id="clip-path-7">
      <rect id="Rectangle_1437" data-name="Rectangle 1437" width="550.324" height="757.63" fill="none"/>
    </clipPath>
    <clipPath id="clip-path-8">
      <rect id="Rectangle_1438" data-name="Rectangle 1438" width="636.345" height="447.574" fill="none"/>
    </clipPath>
    <clipPath id="clip-path-9">
      <rect id="Rectangle_1439" data-name="Rectangle 1439" width="188.039" height="416.391" fill="none"/>
    </clipPath>
    <clipPath id="clip-path-10">
      <rect id="Rectangle_1440" data-name="Rectangle 1440" width="669.162" height="318.723" fill="none"/>
    </clipPath>
    <clipPath id="clip-path-11">
      <rect id="Rectangle_1441" data-name="Rectangle 1441" width="136.76" height="136.718" fill="none"/>
    </clipPath>
    <clipPath id="clip-Artboard_2">
      <rect width="2440" height="1578"/>
    </clipPath>
  </defs>
  <g id="Artboard_2" data-name="Artboard – 2" clip-path="url(#clip-Artboard_2)">
    <rect width="2440" height="1578" fill="#fff"/>
    <rect id="Rectangle_1397" data-name="Rectangle 1397" width="2440" height="1578" fill="#1f6849"/>
    <g id="Group_6958" data-name="Group 6958" opacity="0.704">
      <g id="Group_6957" data-name="Group 6957" clip-path="url(#clip-path)">
        <rect id="Rectangle_1432" data-name="Rectangle 1432" width="2440" height="1627" transform="translate(0 0)" fill="#160040"/>
        <g id="Group_6933" data-name="Group 6933">
          <g id="Group_6932" data-name="Group 6932" clip-path="url(#clip-path)">
            <g id="Group_6931" data-name="Group 6931" transform="translate(8.958 47.089)" opacity="0.3">
              <g id="Group_6930" data-name="Group 6930">
                <g id="Group_6929" data-name="Group 6929" clip-path="url(#clip-path-3)">
                  <path id="Path_24164" data-name="Path 24164" d="M49.236,284.377C28.691,302.026,7.815,320.958,3.4,343.1s14.168,47.974,47.167,51.865c16.511,1.945,33.252-1.757,48.862-5.84,177.769-46.48,327.812-149.461,518.669-153.44,9.5-.2,19.588-.033,27.611,3.364,23.772,10.063,8.856,34.537-8.322,49.412C419.843,476.844,152.9,647.472,25.207,869.447c-10.86,18.876-17.578,44.639,7.974,55.525,9.981,4.255,22.507,4.769,34.336,4.356,82.775-2.873,150.177-43.042,212.947-79.128A2804.184,2804.184,0,0,1,552.738,713.218c80.546-35.286,166.4-68.2,261.409-79.007-22.63,48.712-75.175,88.24-125.413,126.7q-273.4,209.279-509.466,438.608c-66.586,64.706-131.9,132.134-160.162,208.308-6.9,18.586-9.627,41.379,12.216,53.81,27.312,15.544,69.078,2.694,97.763-11.712,101.136-50.781,181.451-117.289,265.28-180.55,231.058-174.362,496.28-328.577,786.8-457.49,94.89-42.1,194.644-82.134,305.67-99.344,14.926-2.313,31.707-4.015,44.675,1.435,27.679,11.627,12.128,40.107-6.65,57.971C1406.25,884.76,1264,986,1148.619,1100.294s-204.735,246.785-198.011,384.479c1.558,31.912,13.888,69.072,57.551,82.189,27.452,8.247,59.409,4.2,88.445-1.1,176.2-32.188,330.649-104.643,462.175-189.178s243.115-181.617,361.175-274.565c164.746-129.7,347.092-256.525,433.055-416.527,10.554-19.647,17.968-44.424-4.4-59.022-26.316-17.178-70.262-6.051-101.686,6.757-210.618,85.878-377.8,210.575-556.58,324.084-37.3,23.681-79.261,48.179-130.579,51.107l388.929-378.9c102.008-99.376,204.238-198.99,289.605-305.111,31.346-38.968,54.2-96.156-1.607-120.055-44.213-18.938-101.644.55-145.521,19.832q-432.28,189.964-853.193,391.1c-85.452,40.836-172.206,82.592-271.784,105.076-14.972,3.38-32.449,6.129-45.761.449-21.29-9.087-14.9-30.7-4.737-46.129,135.765-206.089,481.75-328.762,595.373-540.723,6.3-11.745,11.091-26.248-1.392-35.539-16.8-12.506-47.557-4.477-68.759,4.581C1153.9,225.729,927.155,412.822,610.29,496.67q207.922-168.243,415.838-336.486c26.557-21.488,53.931-44.06,63.121-71.219s-6.087-60.187-44.7-70.8c-27.914-7.671-59.764-2.066-88.143,4.805C798.521,61.192,665.99,135.326,513.288,181.985,465.923,196.456,393.829,201.9,376.473,169.15c-12.665-23.9,17.942-48.026,49.044-62.61C553.2,46.672,476.291-20.311,357.964,51.8,244.352,121.04,143.375,203.512,49.236,284.377" transform="translate(-2.754 -14.474)" fill="#351289"/>
                </g>
              </g>
            </g>
          </g>
        </g>
        <g id="Group_6956" data-name="Group 6956">
          <g id="Group_6955" data-name="Group 6955" clip-path="url(#clip-path)">
            <g id="Group_6936" data-name="Group 6936" transform="translate(399.337 414.738)" opacity="0.26">
              <g id="Group_6935" data-name="Group 6935">
                <g id="Group_6934" data-name="Group 6934" clip-path="url(#clip-path-5)">
                  <path id="Path_24165" data-name="Path 24165" d="M167.978,329.618c104-60.2,210.614-125.068,325.415-159.169,153.375-45.563,316.211-44.229,476.2-42.206,215.14,2.72,441.022,8.83,627.252,116.583,64.227,37.163,124.017,88.683,150.753,157.9,17.054,44.148,19.539,92.365,21.833,139.636,3.358,69.179,6.692,138.859-3.11,207.423s-33.688,136.731-79.014,189.1c-48.507,56.045-123.789,71.674-195.451,90.615,55.668,89.656,73.5,208.181,43.7,309.418l-1006.015.361c-13.736-46.266-16.156-98.882-2.723-145.235s43.4-88.491,85.049-112.878q-12-21.433-24-42.872c-72.4-9.21-142.389-24.667-210.23-51.559S246.4,918.344,202.32,860.178C131.176,766.293,117.9,640.737,124.1,523.1c3.042-57.8,10.219-115.711,26.319-171.249a37.83,37.83,0,0,1,17.428-22.162c.042-.023.088-.049.13-.075" transform="translate(-122.747 -127.482)" fill="#54f23d"/>
                </g>
              </g>
            </g>
            <g id="Group_6939" data-name="Group 6939" transform="translate(444.568 435.8)" opacity="0.26">
              <g id="Group_6938" data-name="Group 6938">
                <g id="Group_6937" data-name="Group 6937" clip-path="url(#clip-path-6)">
                  <path id="Path_24166" data-name="Path 24166" d="M516.473,1322.756c-4.438-41.246-6.285-83.5,3.852-123.727,15.876-62.981,62.321-117.5,121.98-143.176a357.274,357.274,0,0,1-57.721-67.5c-72.758-1.054-149.8-10-217.654-36.288S236.96,880.546,199.719,818.03c-25.773-43.26-38.78-92.905-47.661-142.473a984.157,984.157,0,0,1-13.823-229.246c2.082-36.555,6.826-74.732,27.722-104.8,15.213-21.892,37.7-37.534,60.314-51.647C396.812,183.429,600.416,138.285,801.407,134.267s400.742,31.17,596.827,75.494c74.69,16.885,152.822,37.095,208.106,90.082,31.151,29.856,52.86,68.33,69.218,108.258,47.1,114.97,51.787,246.765,12.991,364.8-10.8,32.859-25.135,65.125-47.44,91.558-22.793,27.009-52.974,46.825-84.365,63.056a524.076,524.076,0,0,1-200.493,56.871c51.211,36.971,89.044,90.674,108.918,150.623a305.355,305.355,0,0,1,1.386,186.4Z" transform="translate(-136.65 -133.955)" fill="#3df241"/>
                </g>
              </g>
            </g>
            <path id="Path_24167" data-name="Path 24167" d="M122.472,296.3q-4.041,18.481-8.085,36.958c-1.005,4.6-2.017,9.256-1.884,13.963.416,14.79,11.842,26.905,23.879,35.51a141.875,141.875,0,0,0,40.741,20.154V319.6c-22.731-2.743-43.64-23-46.8-45.674-3.735,8.654-5.843,13.169-7.857,22.38" transform="translate(253.483 617.242)" fill="#aefff1"/>
            <path id="Path_24168" data-name="Path 24168" d="M701.785,248.01v98.924s2.824,30.224-79.847,32.189V277.134s24.494,25.051,79.847-29.124" transform="translate(1401.434 558.849)" fill="#aefff1"/>
            <path id="Path_24169" data-name="Path 24169" d="M914.462,240.408c-428.285,0-775.478,105.193-775.478,234.956S486.176,710.326,914.462,710.326s775.478-105.2,775.478-234.962S1342.747,240.408,914.462,240.408m0,440.472c-408.121,0-738.969-92.014-738.969-205.516S506.341,269.847,914.462,269.847s738.969,92.017,738.969,205.516S1322.583,680.88,914.462,680.88" transform="translate(313.177 541.719)" fill="#8bd6c8"/>
            <path id="Path_24170" data-name="Path 24170" d="M365.361,268.072C232.4,305.235,150.2,356.459,150.2,413.028c0,113.5,330.848,205.516,738.972,205.516s738.969-92.014,738.969-205.516c0-56.569-82.192-107.793-215.156-144.956C1275,306.4,1091.115,329.788,889.177,329.788S503.348,306.4,365.361,268.072" transform="translate(338.462 604.056)" fill="#42685f"/>
            <path id="Path_24171" data-name="Path 24171" d="M328.08,707.247C324.5,643.7,316.134,580.282,317.826,516.654s14.214-128.712,48.917-182.07c22.087-33.965,52.278-61.878,83.832-87.29,27.787-22.373,57.578-43.458,91.7-53.885,66.414-20.3,140.157,3.533,195.155,45.937A322.752,322.752,0,0,1,853.975,421.682c9.851,43.328,10.564,88.133,11.774,132.551,2.352,86.5,7.655,176.35,49.063,252.329,17.158,31.482,40.049,59.578,56.966,91.191s27.705,68.847,17.991,103.365c-10.219,36.311-41.308,63.186-74.563,80.992-57.441,30.747-123.65,40.439-188.6,45.566a1563,1563,0,0,1-251.557-.462c-36.717-3.032-74.117-7.893-108.573-21.592-20.665-8.215-52.593-20.968-61.036-43.849-10.368-28.1,6.825-69.976,11.013-98.329q8.862-60.009,11.962-120.676a1264.688,1264.688,0,0,0-.335-135.521" transform="translate(680.879 419.252)"/>
            <g id="Group_6942" data-name="Group 6942" transform="translate(1015.199 652.902)" opacity="0.5" style="mix-blend-mode: multiply;isolation: isolate">
              <g id="Group_6941" data-name="Group 6941">
                <g id="Group_6940" data-name="Group 6940" clip-path="url(#clip-path-7)">
                  <path id="Path_24172" data-name="Path 24172" d="M700.484,336.995c21.992,64.813,24.306,134.477,38.532,201.423a575.824,575.824,0,0,0,78.522,190.964c22.4,34.885,49.87,72.169,44.04,113.216-4.246,29.879-25.91,54.575-50.342,72.292a221.25,221.25,0,0,1-74.361,35.016c-36.639,9.464-75.045,9.353-112.826,7.255q-47.082-2.615-93.823-9.2c-30.562-4.311-61.69-10.16-88.256-25.871-38.064-22.51-62.246-62.536-80.2-102.948C303.6,688.169,296.111,535.438,341.2,399.407c16.114-48.611,39.287-95.96,75.406-132.264a202.331,202.331,0,0,1,89.408-52.333c22.77-6.4,49.116-18.02,73.047-12.818,60.388,13.121,103.108,81.034,121.421,135" transform="translate(-312.05 -200.687)" fill="#7267cb"/>
                </g>
              </g>
            </g>
            <path id="Path_24173" data-name="Path 24173" d="M249.858,740.454c-1.4-40.062,6.2-79.882,15.408-118.9,3.634-15.4,7.574-30.877,14.578-45.068,7.522-15.239,18.372-28.571,29.762-41.181C338.531,503.3,372,474.744,410.811,455.9c22.376-10.866,46.21-18.368,69.943-25.832q56.92-17.895,113.844-35.793c-28.021,60.518-68.922,113.961-107.009,168.708s-74.182,112.507-90.55,177.16Z" transform="translate(562.639 888.429)" fill="#f2ab88"/>
            <path id="Path_24174" data-name="Path 24174" d="M451.992,429.233a1096.039,1096.039,0,0,0-90.914,101.82c-19.26,24.41-37.635,49.672-52.3,77.088-22.071,41.236-35.243,86.334-45.143,132.215l102-.215c16.371-64.653,52.463-122.413,90.55-177.16s78.991-108.19,107.009-168.708l-111.192,34.96" transform="translate(594.049 888.429)" fill="#dd9b7f"/>
            <path id="Path_24175" data-name="Path 24175" d="M981.928,595.9c13.03-18.076,27.959-34.6,43.666-50.43-23.831-10.131-48.5-18.83-72.627-27.767-59.634-22.094-121.577-49.994-156.564-103.1-17.034-25.858-26.323-55.918-31.489-86.6-25,20.343-51.357,38.776-80.25,52.961-45.6,22.386-98.879,33.21-147.913,21.875q1.723,13.991,2.694,28.057c1.093,16.179,1.4,32.615-2.281,48.406-6.939,29.775-27.276,54.441-48.071,76.854-25.451,27.432-52.541,53.316-77.777,80.949C346.184,708.424,292.8,793.619,275,888.545l571.081-1.955Q885.431,783.67,932.7,684.017c14.442-30.438,29.524-60.782,49.226-88.113" transform="translate(619.662 739.105)" fill="#fff"/>
            <g id="Group_6945" data-name="Group 6945" transform="translate(1008.911 1179.385)" opacity="0.56">
              <g id="Group_6944" data-name="Group 6944">
                <g id="Group_6943" data-name="Group 6943" clip-path="url(#clip-path-8)">
                  <path id="Path_24176" data-name="Path 24176" d="M644.063,409.724c-42.69,45.384-86.874,89.659-124.131,139.6S452.259,655.663,441.084,716.96c-1.279,7.027-2.772,13.7-4.343,20.265l44.877-.156Q520.97,634.154,568.241,534.5c14.442-30.438,29.524-60.782,49.226-88.113,13.03-18.076,27.959-34.6,43.666-50.43-1.295-.55-2.612-1.057-3.911-1.6q-6.164,7.959-13.16,15.365" transform="translate(-24.788 -290.763)" fill="#ddd"/>
                  <path id="Path_24177" data-name="Path 24177" d="M478.3,468.759c-19.806-23.408-37.833-49.1-50.567-76.863-5.674,7-11.7,13.745-17.77,20.291-25.454,27.432-52.541,53.316-77.777,80.949q-11.292,12.366-22.071,25.288c40.563,69.449,65.324,147.152,86.636,225.463l289.114-.992C655.383,684.927,622.7,629.285,580.217,578.8c-32.2-38.262-69.618-71.866-101.917-110.041" transform="translate(-310.116 -296.313)" fill="#ddd"/>
                  <path id="Path_24178" data-name="Path 24178" d="M440.981,469.984c-31.58-.4-64.37-8.426-87.869-29.531,4.285,19.653,18.131,35.081,35.79,44.714s37.875,13.5,57.883,15.609c18.209,1.916,36.665,2.469,54.8-.1,45.843-6.49,86.854-32.562,120.926-63.915a407.775,407.775,0,0,0,46.23-50.414,214.671,214.671,0,0,1-27.624-23.834C595.651,426.979,519.78,470.97,440.981,469.984" transform="translate(-213.232 -362.514)" fill="#ddd"/>
                </g>
              </g>
            </g>
            <path id="Path_24179" data-name="Path 24179" d="M513.745,465.724C542.638,451.543,569,433.109,594,412.766c-1.214-7.216-2.2-14.468-3.009-21.706-5.453-49.034-2.892-51.383-.625-100.671-74.941,61.774-155.122,73.974-239.51,122.042A514.118,514.118,0,0,1,365.829,487.6c49.038,11.338,102.311.511,147.916-21.875" transform="translate(790.584 654.343)" fill="#f2ab88"/>
            <path id="Path_24180" data-name="Path 24180" d="M786.963,588.527c-5.169-49.883-26.316-98.547-61.817-133.972-26.8-26.746-60.027-44.792-95.1-59.705-15.707,15.827-30.637,32.351-43.666,50.43-19.7,27.328-34.785,57.672-49.226,88.116q-47.234,99.542-86.62,202.569L760.92,734.9c20.926-45.579,31.213-96.491,26.043-146.374" transform="translate(1015.208 889.729)" fill="#ffc59a"/>
            <path id="Path_24181" data-name="Path 24181" d="M562.245,225.751A210.384,210.384,0,0,0,483.2,213.438c-32.963,1.3-65.063,10.349-96.8,19.331-17.106,4.844-37.794,10.564-42.7,27.653C334.059,294,326.131,328.17,322.4,362.9a433.558,433.558,0,0,0,5.752,130.185c4.821,24.371,11.93,48.735,25.548,69.511s34.58,37.335,58.937,42.212c49.9,9.984,120.11-19,148.131-33.89,39.277-20.864,64.488-51.474,89.021-88.572a154.444,154.444,0,0,0,10.238-18.206c-2.424-16.377-4.665-32.816-7.831-49a427.561,427.561,0,0,0-89.951-189.393" transform="translate(720.916 480.593)" fill="#ffc59a"/>
            <path id="Path_24182" data-name="Path 24182" d="M551.7,365.108c11.12.732,22.5,1.617,32.663,6.194,13.508,6.09,23.349,17.988,32.69,29.491,13.127,16.172,26.287,32.419,39.073,48.937-1.7-11.582-3.474-23.147-5.713-34.586a427.544,427.544,0,0,0-89.951-189.393,210.374,210.374,0,0,0-79.046-12.314c-32.96,1.3-65.063,10.349-96.8,19.335-17.106,4.841-37.794,10.56-42.7,27.65-9.562,33.311-17.428,67.207-21.2,101.66a2200.554,2200.554,0,0,1,230.98,3.026" transform="translate(722.696 480.593)" fill="#f2ab88"/>
            <path id="Path_24183" data-name="Path 24183" d="M409.512,305.9q-6.559-4.89-13.121-9.776c-9.178-6.839-19.66-14.038-31-12.506-12.773,1.731-21.257,13.7-28.141,24.592,2.287,10.974,6.305,21.482,15.437,27.979,10.43,7.421,25.389,5.765,36.128-1.194s15.19-17.542,20.7-29.095" transform="translate(759.934 638.617)" fill="#ef8f7d"/>
            <path id="Path_24184" data-name="Path 24184" d="M450.04,299.662a36.346,36.346,0,1,1-36.346-36.346,36.347,36.347,0,0,1,36.346,36.346" transform="translate(850.291 593.339)" fill="#ffa087"/>
            <path id="Path_24185" data-name="Path 24185" d="M352.725,245.1c2.375,12.577,4.659,26.072-.524,37.774a32.172,32.172,0,0,1-17.311,16.667,4.2,4.2,0,0,0-2.456,1.718c-.664,1.4.475,2.948,1.571,4.034a62.917,62.917,0,0,0,32.4,17" transform="translate(748.642 552.288)" fill="none" stroke="#56052a" stroke-linecap="round" stroke-linejoin="round" stroke-width="2"/>
            <path id="Path_24186" data-name="Path 24186" d="M335.833,293.661a103.067,103.067,0,0,0,90.921-5.085" transform="translate(756.744 650.258)" fill="none" stroke="#56052a" stroke-linecap="round" stroke-linejoin="round" stroke-width="2"/>
            <path id="Path_24187" data-name="Path 24187" d="M643.773,400.911q-6.8-3.123-13.723-6.061c-15.707,15.827-30.637,32.354-43.666,50.43-19.7,27.331-34.785,57.672-49.226,88.116q-47.234,99.547-86.623,202.569l81.3-.28a783.257,783.257,0,0,1,26.079-156.811c17.506-64,43.93-126.8,85.862-177.964" transform="translate(1015.206 889.729)" fill="#f2ab88"/>
            <path id="Path_24188" data-name="Path 24188" d="M826.738,942.409c-30.952-77.921-89.21-141.2-144.019-204.654s-108.85-131.893-128.23-213.468c-5.475-23.047-8.046-46.685-12.945-69.859-6.721-31.792-18.017-63-36.659-89.61S459.827,316.376,428.8,306.73c-17.867-5.553-42.225-4.047-49.142,13.339-4.49,11.289.791,23.775,3.862,35.533,8.488,32.517-1.389,68.584-25.256,92.245-15.3-15.606-33.275-24.406-50.1-38.344l-38.08-31.531c-5.71-4.727-11.715-9.6-18.954-11.218S240.4,365.3,237.7,372.2c-2.242,5.745.27,12.161,2.987,17.7a215.946,215.946,0,0,0,39.411,55.752c7.951,8.13,16.556,15.642,23.9,24.325,10.346,12.233,18.479,26.18,26.381,40.117,39.138,69.006,62.692,77.26,102.457,103.443,28.938,19.048,41.812,54.991,57.708,85.774,40.771,78.949,81.678,158.219,111.033,242.084Z" transform="translate(533.657 684.687)" fill="#ffc59a"/>
            <path id="Path_24189" data-name="Path 24189" d="M279.686,372.256c-11.341-14.24-21.68-30.52-26.287-47.84-.748-.244-1.5-.472-2.277-.644-7.235-1.61-10.726-1.458-13.427,5.446-2.242,5.745.273,12.161,2.987,17.7a215.946,215.946,0,0,0,39.411,55.752c7.951,8.13,16.556,15.642,23.9,24.325,10.346,12.233,18.472,26.18,26.378,40.117,2.892,5.1,5.693,9.835,8.429,14.3-3.364-14.923-6.1-30.025-12.089-44.06-10.557-24.709-30.285-44.076-47.024-65.1" transform="translate(533.657 727.67)" fill="#f2ab88"/>
            <path id="Path_24190" data-name="Path 24190" d="M353.121,411.443c-5.462-3.914-12.506-4.62-19.175-5.456a264.35,264.35,0,0,1-37.97-7.662q1.767,1.147,3.575,2.333c28.935,19.052,41.812,54.991,57.708,85.774,40.771,78.949,81.678,158.219,111.033,242.087l52.613.234c-59.419-97.876-96.367-210.269-158.991-306.929-2.482-3.832-5.085-7.724-8.794-10.381" transform="translate(666.933 897.561)" fill="#f2ab88"/>
            <path id="Path_24191" data-name="Path 24191" d="M336.1,519.111c9.851,13.384,22.8,25.3,38.78,29.869-25.331-58.778-14.126-125.923-6.442-189.461,1.077-8.914,2.043-18.189-.9-26.671-5.921-17.083-26.7-25.493-44.519-22.445-11.884,2.033-22.529,7.987-32.042,15.57,1.184,5.449,3.026,10.931,4.415,16.26,7.759,29.726.133,62.383-19.458,85.852,11.035,16.394,23.665,31.785,34.17,48.514,8.836,14.074,16.146,29.127,26,42.511" transform="translate(621.778 698.056)" fill="#f2ab88"/>
            <path id="Path_24192" data-name="Path 24192" d="M274.29,347.656A125.37,125.37,0,0,1,313.5,385.613a250.806,250.806,0,0,1,12.695,22.575q5.778,11.165,11.562,22.331" transform="translate(618.067 783.385)" fill="none" stroke="#d3835f" stroke-linecap="round" stroke-linejoin="round" stroke-width="1"/>
            <path id="Path_24193" data-name="Path 24193" d="M251.257,359.739a32.764,32.764,0,0,0,19.862-24.124" transform="translate(566.166 756.252)" fill="none" stroke="#d3835f" stroke-linecap="round" stroke-linejoin="round" stroke-width="1"/>
            <path id="Path_24194" data-name="Path 24194" d="M255.867,361A39.981,39.981,0,0,0,270.3,339.974" transform="translate(576.554 766.075)" fill="none" stroke="#d3835f" stroke-linecap="round" stroke-linejoin="round" stroke-width="1"/>
            <path id="Path_24195" data-name="Path 24195" d="M310.484,325.141c-9.2,62.659-17.936,129.164,7.278,187.259" transform="translate(678.734 732.651)" fill="none" stroke="#d3835f" stroke-linecap="round" stroke-linejoin="round" stroke-width="1"/>
            <path id="Path_24196" data-name="Path 24196" d="M334.319,365.035a104.9,104.9,0,0,1-46.884-35.614" transform="translate(647.687 742.295)" fill="none" stroke="#d3835f" stroke-linecap="round" stroke-linejoin="round" stroke-width="1"/>
            <path id="Path_24197" data-name="Path 24197" d="M250.838,259.2c-1.773,12.125,5.046,23.987,13.644,32.719s19.107,15.4,27.64,24.2c14.425,14.871,22.272,34.742,29.771,54.054q12.156,31.31,24.315,62.62c2.586,6.663,6.048,14.152,12.929,16.075,6.692,1.867,13.849-2.85,16.937-9.074s3.026-13.5,2.5-20.431c-2.8-36.633-17.3-72.123-40.247-100.743-19.611-24.458-55.007-56.845-87.485-59.419" transform="translate(564.584 584.064)" fill="#ffc59a"/>
            <path id="Path_24198" data-name="Path 24198" d="M346.762,393.169c-5.726-15.87-11.13-32.019-19.888-46.438-10.251-16.888-24.7-30.757-36.938-46.272-8.654-10.967-16.351-23.369-20.034-36.672a68.087,68.087,0,0,0-19.065-4.587c-1.77,12.125,5.046,23.987,13.644,32.719s19.11,15.4,27.64,24.2c14.425,14.871,22.276,34.742,29.775,54.054l24.312,62.62c2.586,6.663,6.048,14.152,12.932,16.075a12.559,12.559,0,0,0,9.139-1.148c-7.665-17.984-14.881-36.161-21.517-54.549" transform="translate(564.585 584.064)" fill="#f2ab88"/>
            <path id="Path_24199" data-name="Path 24199" d="M362.667,426.247c1.529,3.693-9.588,1.223-6.777,4.063,6.7,6.77,19.771,5.017,24.452-3.273,4.037-7.157,1.835-16.085-.657-23.915-6.663-20.942-14.988-41.539-26.254-60.453-9.074-15.232-25.057-41.311-42.5-48.2-7.772-3.071-33.132-36.167-50.284-30.188-7.219,27.221,67.029,77.381,69.992,84.544q16.016,38.708,32.029,77.42" transform="translate(586.21 593.894)" fill="#f2ab88"/>
            <path id="Path_24200" data-name="Path 24200" d="M275.9,264.917c-3.595-1.155-7.915-1.988-10.834.407-3.761,3.087-2.5,9.1-.436,13.508,8.016,17.165,22.728,30.432,38.868,40.351,8.491,5.218,17.539,9.692,25.044,16.254,28.636,25.038,26.817,71.97,52.584,99.952,6.246,6.786,18.57,11.572,23.557,3.813,1.418-2.209,1.75-4.929,1.926-7.548,1.119-16.722-2.642-33.386-7.34-49.47-6.611-22.627-16.42-69.407-38.858-80.224-13.446-6.481-28.48-9.513-42.072-16.742-13.849-7.369-27.419-15.476-42.44-20.3" transform="translate(591.858 594.395)" fill="#ffc59a"/>
            <path id="Path_24201" data-name="Path 24201" d="M357.711,420.61c1.418-2.209,1.75-4.929,1.926-7.548,1.119-16.722-2.642-33.386-7.34-49.47-6.611-22.627-16.42-69.407-38.858-80.224-9.539-4.6-19.878-7.479-29.934-11.335,9.877,14.172,17,30.432,22.907,46.767,8.527,23.59,15,48.032,26.147,70.506a135.948,135.948,0,0,0,23.03,33.587,8.537,8.537,0,0,0,2.121-2.284" transform="translate(638.834 612.983)" fill="#f2ab88"/>
            <path id="Path_24202" data-name="Path 24202" d="M322.6,376.946c-10.97-26.983-21.953-54-30.773-81.76-1.7-5.352-3.338-10.96-2.447-16.5s5.078-10.973,10.677-11.38q18.817,29.739,37.628,59.481c6.881,10.873,13.791,21.807,18.869,33.63,5.033,11.715,8.192,24.13,12.307,36.2,3.514,10.3,7.743,20.337,12.141,30.292,3.589,8.117,12.912,20.867,13.433,29.667,1,16.843-22.126,6.035-31.365-.075-22.77-15.056-30.858-55.905-40.471-79.547" transform="translate(651.513 602.32)" fill="#ffc59a"/>
            <path id="Path_24203" data-name="Path 24203" d="M270.091,274.227A11.755,11.755,0,0,0,273.354,277a36.554,36.554,0,0,0,18.489,5.6c1.884.042,4.015-.169,5.215-1.633a5.777,5.777,0,0,0,1.028-3.514c-9.09-4.857-18.313-9.438-28.167-12.6a23.859,23.859,0,0,0-4.6-1.038,33.635,33.635,0,0,1,2.632,5.557,17.837,17.837,0,0,0,2.144,4.857" transform="translate(597.843 594.459)" fill="#fff"/>
            <path id="Path_24204" data-name="Path 24204" d="M297.763,296.055a36.271,36.271,0,0,1,6.341,5.752,2.105,2.105,0,0,0,.8-.085,4.073,4.073,0,0,0,1.721-1.545c1.4-1.877,2.73-3.813,3.992-5.788l-17.09-27.016a34.283,34.283,0,0,0,4.236,28.681" transform="translate(658.196 602.483)" fill="#fff"/>
            <path id="Path_24205" data-name="Path 24205" d="M293.84,276.19a29.892,29.892,0,0,0,3.253,4.031,4.93,4.93,0,0,0,3.087,1.721,36.271,36.271,0,0,0-6.341-5.752" transform="translate(662.119 622.348)" fill="#fff"/>
            <g id="Group_6948" data-name="Group 6948" transform="translate(1381.404 814.397)" opacity="0.25">
              <g id="Group_6947" data-name="Group 6947">
                <g id="Group_6946" data-name="Group 6946" clip-path="url(#clip-path-9)">
                  <path id="Path_24206" data-name="Path 24206" d="M459.455,473.792A259.427,259.427,0,0,0,544.13,612.5c-53.355-62.214-66.576-150.424-57.994-231.933,7.681,106.1,53.208,209.069,126.516,286.153a455.668,455.668,0,0,1-90.638-261.594,472.111,472.111,0,0,0,56.93,141.4,423.3,423.3,0,0,1-20.483-232.786q-11.566,40.748-23.138,81.5a421.957,421.957,0,0,1-16.778-131.493,616.643,616.643,0,0,0-10.463,130.023A347.018,347.018,0,0,0,466.6,292.425a483.21,483.21,0,0,1-4.584,88.221c6.305-43.634-12.818-95.186-37.407-130.319,30.757,71.479,17.672,149.051,34.843,223.465" transform="translate(-424.612 -250.327)" fill="#fff"/>
                </g>
              </g>
            </g>
            <path id="Path_24207" data-name="Path 24207" d="M1689.939,377.56c0-129.762-347.192-234.959-775.478-234.959S138.984,247.8,138.984,377.56c0,.355.039.7.046,1.057h-.046V695.759c0-61.377,77.706-117.247,204.895-159.1C485.594,490.028,688.752,460.8,914.462,460.8s428.867,29.228,570.586,75.858c117.927,38.806,193.281,89.665,203.626,145.788l1.266-.01V378.617h-.046c.007-.355.046-.7.046-1.057" transform="translate(313.177 321.328)" fill="#60a597"/>
            <path id="Path_24208" data-name="Path 24208" d="M139,312.9c0-.091-.013-.182-.013-.27v.27Z" transform="translate(313.177 704.457)" fill="#60a597"/>
            <path id="Path_24209" data-name="Path 24209" d="M188.563,239.328v306.4s327.393-173.325,887.968-96.777V147.47S654.922,57.964,188.563,239.328" transform="translate(424.895 282.533)" fill="#8bd6c8"/>
            <g id="Group_6951" data-name="Group 6951" transform="translate(694.837 442.925)" opacity="0.31">
              <g id="Group_6950" data-name="Group 6950">
                <g id="Group_6949" data-name="Group 6949" clip-path="url(#clip-path-10)">
                  <path id="Path_24210" data-name="Path 24210" d="M882.739,388.735q-38.22-89.811-77.032-179.382-31.261,55.627-61.823,111.641-38.1-92.505-76.59-184.848-30.773,80.271-61.01,160.75c-26.4,11.663-39.587,17.818-65.89,30.764-27.194-19.185-40.767-28.5-67.835-46.552-26.912,15.2-40.332,23.134-67.051,39.691q-34.789-33.76-70.265-66.843c-25.63,19.367-38.386,29.368-63.739,50.01-23.268-26.482-34.856-39.531-57.926-65.226Q218.589,346.8,223.6,454.865c215.286-70.431,434.135-92.486,659.138-66.131" transform="translate(-213.577 -136.143)" fill="#ccfff5"/>
                </g>
              </g>
            </g>
            <path id="Path_24211" data-name="Path 24211" d="M229.071,414.34a5.683,5.683,0,0,1-3.546.117,2.3,2.3,0,0,1-1.653-2.1q-6.359-125.328-12.714-250.66c-.1-2.056,2.141-4.516,5.007-5.492,2.84-.966,5.283-.078,5.387,1.975Q227.8,281.62,234.058,405.061q343.22-110.834,699.636-57.594c2.908.436,5.479,2.547,5.583,4.574s-2.232,3.26-5.215,2.769q-359.553-53.7-704.815,59.471c-.059.023-.117.039-.176.059" transform="translate(475.803 351.092)" fill="#ccfff5"/>
            <path id="Path_24212" data-name="Path 24212" d="M236.957,315.484c-.146-2.977-.224-4.464-.371-7.437,2.1-.634,3.143-.95,5.241-1.575.15,2.974.224,4.464.374,7.437-2.1.625-3.146.94-5.244,1.575m-.748-14.874c-.15-2.977-.224-4.464-.374-7.437,2.1-.634,3.143-.947,5.238-1.571.153,2.974.224,4.46.377,7.437-2.1.625-3.146.937-5.241,1.571m-.752-14.878-.374-7.434c2.092-.631,3.143-.947,5.241-1.571.146,2.974.224,4.46.374,7.437-2.1.621-3.143.937-5.241,1.568m-.748-14.871c-.156-2.977-.228-4.464-.381-7.44,2.1-.631,3.149-.943,5.244-1.568.15,2.977.224,4.464.377,7.437-2.1.625-3.146.937-5.241,1.571m-.752-14.874c-.15-2.977-.228-4.464-.377-7.437,2.1-.631,3.146-.947,5.241-1.568.153,2.974.228,4.464.377,7.437-2.1.621-3.146.937-5.241,1.568m-.752-14.874-.374-7.44c2.092-.628,3.146-.94,5.241-1.562.146,2.974.224,4.464.371,7.437-2.1.621-3.143.934-5.238,1.565m-.748-14.878c-.15-2.974-.228-4.46-.381-7.434,2.1-.631,3.149-.943,5.244-1.565.153,2.974.224,4.46.377,7.437-2.1.621-3.146.934-5.241,1.562m-.752-14.871c-.15-2.977-.224-4.464-.377-7.437,2.1-.631,3.146-.943,5.244-1.565.146,2.977.224,4.464.374,7.437-2.1.621-3.146.934-5.241,1.565m-.752-14.874c-.153-2.974-.224-4.464-.377-7.437,2.1-.628,3.146-.94,5.244-1.562.15,2.977.224,4.464.377,7.437-2.1.621-3.149.934-5.244,1.562" transform="translate(519.567 422.48)" fill="#ccfff5"/>
            <path id="Path_24213" data-name="Path 24213" d="M257.515,329.824l-.374-7.424c2.118-.537,3.175-.8,5.3-1.331.15,2.97.221,4.457.371,7.427-2.118.527-3.175.794-5.293,1.327m-.745-14.855c-.15-2.97-.224-4.454-.374-7.427,2.115-.534,3.175-.8,5.293-1.324l.374,7.424c-2.118.527-3.178.794-5.293,1.327m-.748-14.855-.374-7.427c2.118-.534,3.175-.8,5.3-1.327.146,2.974.221,4.457.371,7.431-2.118.524-3.175.791-5.293,1.324m-.748-14.855c-.15-2.97-.224-4.457-.374-7.427,2.118-.534,3.179-.8,5.3-1.324l.374,7.427c-2.118.527-3.178.791-5.3,1.324m-.745-14.855-.374-7.427c2.118-.534,3.175-.8,5.3-1.321.146,2.97.221,4.454.371,7.424-2.118.524-3.178.791-5.293,1.324m-.745-14.855c-.15-2.974-.224-4.457-.374-7.431,2.118-.53,3.175-.794,5.3-1.321.15,2.974.224,4.457.374,7.427-2.121.527-3.179.791-5.3,1.324m-.748-14.855c-.15-2.974-.224-4.457-.374-7.427,2.118-.534,3.179-.8,5.3-1.321l.374,7.427c-2.118.524-3.179.787-5.3,1.321m-.745-14.858c-.15-2.97-.224-4.454-.374-7.424,2.118-.533,3.175-.8,5.3-1.318l.374,7.424c-2.121.524-3.179.787-5.3,1.318m-.748-14.852c-.15-2.974-.224-4.457-.374-7.427,2.118-.53,3.179-.794,5.3-1.318.15,2.97.224,4.457.374,7.427-2.118.52-3.179.784-5.3,1.318m-.745-14.855c-.15-2.974-.224-4.457-.374-7.427,2.118-.53,3.175-.794,5.3-1.314l.374,7.424c-2.121.524-3.179.787-5.3,1.318m-.748-14.855c-.15-2.97-.224-4.457-.374-7.427,2.118-.53,3.179-.794,5.3-1.314.15,2.97.224,4.457.374,7.427-2.118.521-3.179.784-5.3,1.314" transform="translate(562.599 388.779)" fill="#ccfff5"/>
            <path id="Path_24214" data-name="Path 24214" d="M275.823,274.741c-.15-2.967-.224-4.451-.374-7.421,2.138-.429,3.2-.644,5.342-1.07.15,2.967.224,4.451.371,7.418-2.137.426-3.2.641-5.339,1.074m-.745-14.835c-.146-2.97-.221-4.454-.368-7.421,2.134-.429,3.2-.644,5.342-1.067.146,2.967.221,4.451.368,7.418-2.137.426-3.2.638-5.342,1.07m-.742-14.838c-.146-2.967-.221-4.451-.371-7.414,2.138-.433,3.2-.647,5.342-1.07.15,2.967.224,4.451.371,7.418-2.137.423-3.2.638-5.342,1.067m-.742-14.832c-.15-2.967-.224-4.451-.371-7.418,2.134-.43,3.2-.644,5.342-1.067.146,2.967.221,4.451.371,7.414-2.138.423-3.208.638-5.342,1.07M272.85,215.4c-.146-2.967-.221-4.451-.371-7.418,2.138-.433,3.2-.644,5.342-1.067l.374,7.418c-2.137.423-3.208.634-5.345,1.067m-.742-14.835c-.15-2.967-.224-4.451-.371-7.418,2.134-.429,3.2-.644,5.342-1.064.15,2.967.221,4.451.371,7.418-2.137.42-3.2.634-5.342,1.064" transform="translate(612.314 432.827)" fill="#ccfff5"/>
            <path id="Path_24215" data-name="Path 24215" d="M315.745,246.449c-.15-2.964-.221-4.444-.371-7.4,2.163-.231,3.243-.345,5.407-.569.146,2.96.221,4.441.368,7.4-2.16.224-3.244.338-5.4.573m-.738-14.8c-.146-2.957-.221-4.438-.371-7.395,2.163-.231,3.244-.345,5.407-.566.146,2.964.221,4.438.368,7.4-2.16.221-3.244.335-5.4.563m-.738-14.793c-.146-2.961-.221-4.438-.371-7.4,2.164-.231,3.244-.345,5.407-.566.146,2.961.221,4.441.371,7.4-2.163.221-3.247.335-5.407.566m-.739-14.8c-.146-2.961-.221-4.437-.368-7.395,2.16-.231,3.24-.345,5.4-.566.15,2.964.221,4.441.371,7.4-2.164.221-3.244.335-5.407.563" transform="translate(705.658 437.363)" fill="#ccfff5"/>
            <path id="Path_24216" data-name="Path 24216" d="M338.285,266.541c-.146-2.954-.221-4.431-.368-7.385,2.17-.127,3.257-.189,5.427-.306.146,2.954.221,4.434.368,7.388-2.17.117-3.257.179-5.427.3m-.735-14.773c-.146-2.954-.221-4.434-.368-7.388,2.17-.124,3.253-.185,5.423-.3.15,2.954.221,4.434.371,7.388-2.173.117-3.257.179-5.427.3m-.735-14.777c-.146-2.954-.221-4.431-.368-7.385,2.17-.124,3.257-.185,5.427-.3.146,2.954.218,4.431.364,7.385-2.17.117-3.253.176-5.423.3m-.735-14.773c-.146-2.954-.221-4.434-.368-7.388,2.17-.124,3.253-.182,5.423-.3.15,2.954.221,4.431.371,7.385-2.173.117-3.256.179-5.427.3m-.739-14.777c-.146-2.954-.218-4.431-.368-7.388,2.17-.12,3.257-.182,5.427-.3.146,2.954.221,4.431.368,7.388-2.17.114-3.257.172-5.427.3m-.735-14.773c-.146-2.954-.221-4.434-.368-7.388,2.17-.124,3.253-.182,5.427-.3.146,2.954.218,4.434.368,7.388-2.17.114-3.257.172-5.427.3" transform="translate(753.15 416.828)" fill="#ccfff5"/>
            <path id="Path_24217" data-name="Path 24217" d="M364.1,374.7c-.049-.982-.075-1.474-.124-2.453,2.173-.026,3.26-.039,5.436-.055.049.983.072,1.471.12,2.453-2.173.016-3.26.029-5.433.055m-.491-9.832c-.146-2.951-.221-4.428-.368-7.379,2.173-.026,3.26-.036,5.436-.055.146,2.957.218,4.431.368,7.379-2.177.019-3.263.029-5.436.055m-.735-14.757c-.146-2.951-.221-4.424-.368-7.375,2.173-.026,3.26-.036,5.433-.052.15,2.951.221,4.425.368,7.375-2.173.016-3.26.029-5.433.052m-.735-14.757c-.15-2.948-.221-4.425-.368-7.375,2.173-.023,3.26-.033,5.433-.049.146,2.948.221,4.424.368,7.375-2.173.016-3.26.026-5.433.049M361.4,320.6c-.146-2.951-.218-4.428-.368-7.379,2.176-.023,3.263-.033,5.436-.046.146,2.948.221,4.425.368,7.375-2.173.016-3.26.029-5.436.049m-.735-14.754c-.146-2.951-.221-4.428-.368-7.379,2.173-.023,3.26-.032,5.436-.049.146,2.951.221,4.428.368,7.379-2.173.016-3.263.026-5.436.049m-.735-14.757c-.146-2.951-.221-4.428-.368-7.375,2.173-.023,3.26-.033,5.436-.046.146,2.948.221,4.424.368,7.379-2.177.01-3.263.019-5.436.042m-.735-14.751c-.146-2.954-.221-4.431-.368-7.382,2.173-.019,3.26-.029,5.433-.042.15,2.951.221,4.425.371,7.375-2.176.013-3.263.023-5.436.049m-.735-14.76c-.15-2.951-.221-4.425-.368-7.375,2.173-.023,3.26-.033,5.433-.042.15,2.951.221,4.424.368,7.375-2.173.013-3.26.023-5.433.042m-.739-14.754c-.146-2.951-.218-4.425-.368-7.379,2.177-.019,3.263-.026,5.436-.039.146,2.951.221,4.425.368,7.379-2.173.01-3.26.02-5.436.039m-.732-14.754c-.146-2.947-.221-4.428-.368-7.379,2.173-.02,3.26-.026,5.436-.039.146,2.954.221,4.428.368,7.375-2.173.013-3.263.02-5.436.042m-.735-14.754c-.146-2.954-.221-4.428-.368-7.379,2.173-.02,3.26-.026,5.436-.039.146,2.951.218,4.428.368,7.379-2.176.01-3.263.023-5.436.039m-.735-14.754c-.15-2.954-.221-4.428-.368-7.379,2.173-.02,3.26-.026,5.433-.036.15,2.954.221,4.425.371,7.375-2.177.01-3.263.02-5.436.039m-.735-14.757c-.15-2.951-.221-4.428-.371-7.372,2.177-.023,3.263-.029,5.436-.039.146,2.951.221,4.425.368,7.375-2.173.01-3.26.016-5.433.036m-.739-14.754c-.146-2.951-.221-4.425-.368-7.375,2.177-.02,3.263-.023,5.436-.033.146,2.948.221,4.428.368,7.375-2.173.007-3.26.013-5.436.033m-.735-14.754c-.146-2.951-.221-4.428-.368-7.379,2.173-.016,3.263-.023,5.436-.029.146,2.951.221,4.425.368,7.375-2.173.013-3.263.016-5.436.033m-.735-14.754c-.146-2.951-.221-4.428-.368-7.379,2.173-.016,3.26-.016,5.436-.029.146,2.951.221,4.431.368,7.379-2.177.007-3.263.013-5.436.029" transform="translate(793.633 306.771)" fill="#ccfff5"/>
            <path id="Path_24218" data-name="Path 24218" d="M379.773,251.148c-.02-.332-.026-.5-.042-.83,2.173.081,3.263.124,5.436.211.016.332.026.5.042.83-2.173-.088-3.263-.13-5.436-.211m-.41-8.2c-.146-2.947-.221-4.421-.368-7.365,2.177.081,3.263.124,5.44.215.146,2.948.218,4.421.364,7.366-2.177-.091-3.263-.133-5.436-.215m-.735-14.734c-.146-2.948-.221-4.421-.368-7.366,2.177.081,3.263.124,5.44.215.146,2.948.221,4.421.368,7.366-2.177-.091-3.263-.133-5.44-.215m-.735-14.734c-.146-2.947-.221-4.421-.368-7.369,2.177.085,3.263.127,5.44.218.146,2.948.218,4.421.368,7.369-2.176-.091-3.263-.137-5.439-.218m-.735-14.734c-.146-2.948-.221-4.421-.368-7.369,2.177.085,3.263.13,5.436.221.15,2.948.221,4.418.368,7.366-2.173-.091-3.26-.133-5.436-.218" transform="translate(849.034 431.238)" fill="#ccfff5"/>
            <path id="Path_24219" data-name="Path 24219" d="M403.219,328.059c-.146-2.9-.218-4.35-.364-7.248,2.173.179,3.26.27,5.433.455.143,2.9.218,4.35.361,7.248-2.17-.185-3.256-.277-5.43-.456m-.732-14.607c-.146-2.941-.221-4.415-.368-7.356,2.173.179,3.26.27,5.43.455.15,2.944.221,4.415.368,7.356-2.17-.185-3.256-.277-5.43-.455m-.735-14.715c-.146-2.944-.221-4.415-.368-7.356,2.173.179,3.257.27,5.43.459.146,2.941.221,4.412.368,7.356-2.17-.189-3.257-.28-5.43-.459m-.735-14.715c-.15-2.944-.221-4.415-.368-7.359,2.17.179,3.257.273,5.43.462.146,2.941.221,4.415.368,7.356-2.173-.189-3.26-.28-5.43-.459m-.739-14.715c-.146-2.944-.218-4.415-.368-7.359,2.173.179,3.26.273,5.43.462.15,2.944.221,4.415.368,7.356-2.17-.189-3.257-.28-5.43-.459m-.735-14.718c-.146-2.941-.218-4.415-.364-7.356,2.17.182,3.256.273,5.43.465.146,2.941.218,4.411.364,7.356-2.17-.189-3.256-.283-5.43-.465m-.732-14.715c-.15-2.944-.221-4.415-.371-7.359,2.173.182,3.26.277,5.43.465.15,2.944.221,4.415.371,7.359-2.173-.189-3.26-.283-5.43-.465m-.739-14.715c-.146-2.944-.221-4.415-.368-7.359,2.173.185,3.26.276,5.43.468.146,2.944.221,4.415.368,7.359-2.17-.192-3.257-.286-5.43-.468m-.735-14.715c-.146-2.944-.221-4.415-.368-7.359,2.173.185,3.257.28,5.43.472.146,2.941.221,4.411.368,7.352-2.173-.189-3.257-.283-5.43-.465M396.6,195.73c-.15-2.944-.221-4.415-.368-7.356,2.17.182,3.257.276,5.427.468.15,2.941.221,4.415.371,7.356-2.173-.192-3.26-.286-5.43-.469m-.738-14.715c-.146-2.944-.221-4.415-.368-7.359,2.173.185,3.26.28,5.43.472.146,2.944.221,4.415.368,7.359-2.17-.2-3.257-.29-5.43-.472m-.735-14.715c-.146-2.944-.221-4.415-.368-7.359,2.173.185,3.256.28,5.43.475.146,2.941.221,4.415.368,7.356-2.173-.192-3.257-.286-5.43-.472" transform="translate(889.526 358.147)" fill="#ccfff5"/>
            <path id="Path_24220" data-name="Path 24220" d="M297.234,291.161c-.12-2.388-.179-3.582-.3-5.973,2.151-.332,3.227-.495,5.378-.82.12,2.388.179,3.585.3,5.973-2.151.325-3.227.488-5.378.82m-.667-13.381c-.15-2.964-.224-4.444-.371-7.408,2.15-.332,3.224-.495,5.378-.817.146,2.961.221,4.444.368,7.4-2.151.325-3.224.488-5.375.82m-.742-14.816c-.15-2.964-.221-4.444-.371-7.408,2.15-.332,3.227-.495,5.378-.817.15,2.964.221,4.444.371,7.408-2.151.322-3.227.485-5.378.817m-.742-14.816c-.146-2.964-.221-4.444-.368-7.408,2.151-.329,3.224-.491,5.378-.813.146,2.961.221,4.444.368,7.408-2.15.322-3.227.485-5.378.813m-.738-14.816c-.15-2.964-.221-4.444-.371-7.408,2.15-.329,3.227-.491,5.378-.813.15,2.964.221,4.444.371,7.408-2.154.322-3.227.485-5.378.813m-.742-14.816c-.146-2.961-.221-4.444-.371-7.4,2.15-.329,3.227-.491,5.378-.813l.371,7.4c-2.15.322-3.227.485-5.378.813m-.739-14.812c-.15-2.964-.224-4.447-.371-7.408,2.15-.329,3.224-.491,5.378-.813.146,2.964.221,4.447.371,7.408-2.154.322-3.227.485-5.378.813m-.742-14.816c-.15-2.964-.221-4.444-.371-7.408,2.15-.329,3.227-.491,5.378-.81.15,2.964.224,4.444.371,7.408-2.15.319-3.227.482-5.378.81" transform="translate(657.415 407.112)" fill="#ccfff5"/>
            <path id="Path_24221" data-name="Path 24221" d="M249.757,188.384c.01,4.275-4.821,9.018-10.782,10.645s-10.788-.485-10.8-4.766,4.8-9.109,10.762-10.729,10.811.576,10.821,4.851" transform="translate(514.152 412.36)" fill="#ccfff5"/>
            <path id="Path_24222" data-name="Path 24222" d="M291.184,196.513c0,4.246-4.919,8.511-10.993,9.575s-10.99-1.474-11-5.723,4.906-8.6,10.98-9.662,11.006,1.565,11.009,5.81" transform="translate(606.586 429.185)" fill="#ccfff5"/>
            <path id="Path_24223" data-name="Path 24223" d="M332.667,198.646c0,4.216-4.981,7.993-11.126,8.494s-11.12-2.479-11.12-6.7,4.974-8.085,11.117-8.579,11.13,2.567,11.13,6.783" transform="translate(699.482 432.214)" fill="#ccfff5"/>
            <path id="Path_24224" data-name="Path 24224" d="M269.432,175.58c.007,4.262-4.877,8.761-10.9,10.1s-10.9-.986-10.908-5.251,4.86-8.852,10.882-10.189,10.918,1.077,10.925,5.339" transform="translate(557.982 382.78)" fill="#ccfff5"/>
            <path id="Path_24225" data-name="Path 24225" d="M312.273,185.5c0,4.229-4.958,8.237-11.071,9s-11.068-2.007-11.068-6.243,4.945-8.325,11.058-9.087,11.078,2.1,11.081,6.328" transform="translate(653.769 403.469)" fill="#ccfff5"/>
            <path id="Path_24226" data-name="Path 24226" d="M371.59,141.622c0,4.184-5.01,7.45-11.188,7.346s-11.182-3.536-11.182-7.723,5.007-7.541,11.185-7.434,11.185,3.627,11.185,7.811" transform="translate(786.909 301.514)" fill="#ccfff5"/>
            <path id="Path_24227" data-name="Path 24227" d="M353.132,189.986c0,4.2-5,7.73-11.165,7.938s-11.159-2.993-11.159-7.2,4.994-7.821,11.159-8.023,11.165,3.084,11.165,7.284" transform="translate(745.421 411.669)" fill="#ccfff5"/>
            <path id="Path_24228" data-name="Path 24228" d="M415.449,165.619c0,4.151-5,6.913-11.169,6.224s-11.172-4.577-11.172-8.735,5-7.008,11.172-6.311,11.169,4.672,11.169,8.823" transform="translate(885.803 353.077)" fill="#ccfff5"/>
            <path id="Path_24229" data-name="Path 24229" d="M397.4,197.475c0,4.168-5.01,7.177-11.188,6.777s-11.191-4.067-11.188-8.241,5.01-7.268,11.192-6.861,11.185,4.158,11.185,8.325" transform="translate(845.05 426.137)" fill="#ccfff5"/>
            <path id="Path_24230" data-name="Path 24230" d="M138.984,312.9H139c0-.091-.013-.182-.013-.27Z" transform="translate(313.177 704.457)" fill="none" stroke="#222221" stroke-linecap="round" stroke-linejoin="round" stroke-width="1"/>
            <path id="Path_24231" data-name="Path 24231" d="M914.462,240.408c-428.285,0-775.478,105.193-775.478,234.959,0,.091.013.179.013.27l36.5-.319c.094-113.483,330.9-205.468,738.965-205.468,392.43,0,713.352,85.078,737.456,192.526l36.756-.322C1665.891,338.486,1328,240.408,914.462,240.408" transform="translate(313.177 541.719)" fill="#8bd6c8"/>
            <path id="Path_24232" data-name="Path 24232" d="M358.184,315.636V214.06c-93.553,25.929-178.071,80.084-245.747,149.683V483.42c25.77-44.867,64.2-77.784,108.5-104.53s89.1-44.327,137.252-63.255" transform="translate(253.358 482.349)" fill="#67c1ac"/>
            <path id="Path_24233" data-name="Path 24233" d="M176.029,427.523V350.594c-25.285-9.422-52.174-20.278-66.381-43.217v75.956c19.533,18.524,42.1,32.556,66.381,44.19" transform="translate(247.074 692.623)" fill="#aefff1"/>
            <path id="Path_24234" data-name="Path 24234" d="M142.821,312V261.853c-20.141-5.514-37.439-18.6-47.29-37.01v51.816c11.191,17.731,27.195,29.361,47.29,35.341" transform="translate(215.263 506.646)" fill="#aefff1"/>
            <path id="Path_24235" data-name="Path 24235" d="M425.875,361.092V139.316c-105.356,25.526-204.062,75.048-290.526,140.446v216.7C216.7,421.949,317.083,379.4,425.875,361.092" transform="translate(304.986 313.925)" fill="#aefff1"/>
            <path id="Path_24236" data-name="Path 24236" d="M236.707,195.724V167.437S353.069,117.973,547.5,109.729v37.687s-118.835-9.373-310.794,48.309" transform="translate(533.38 247.256)" fill="#aefff1"/>
            <path id="Path_24237" data-name="Path 24237" d="M954.432,254.589V481.88C723.608,395.91,401.775,380.6,401.775,380.6V133.288s315.092-5.889,552.657,121.3" transform="translate(905.333 300.248)" fill="#aefff1"/>
            <path id="Path_24238" data-name="Path 24238" d="M695.868,191.492c-61.159-36.421-126.62-62.614-197.8-62.614V154.9c66.846,7.427,137.092,34.319,197.8,63.261Z" transform="translate(1122.307 290.405)" fill="#aefff1"/>
            <path id="Path_24239" data-name="Path 24239" d="M564.671,233.206V156.323s69.481,12.112,129.544,52.151v80.084s-55.352-45.931-129.544-55.352" transform="translate(1272.392 352.248)" fill="#67c1ac"/>
            <path id="Path_24240" data-name="Path 24240" d="M546.571,184.3V412.973S652.562,400.4,803.3,532.6V292.645S707.914,205.5,546.571,184.3" transform="translate(1231.607 415.287)" fill="#8bd6c8"/>
            <path id="Path_24241" data-name="Path 24241" d="M647.929,317.555s16.488-1.555,31.8-19.78v33.591s-11.478,13.775-29.14,20.87Z" transform="translate(1460 670.986)" fill="#aefff1"/>
            <path id="Path_24242" data-name="Path 24242" d="M575.893,423.543v85.436s77.725-23.554,129.544-76.551V332.365s-37.687,58.742-129.544,91.178" transform="translate(1297.679 748.929)" fill="#aefff1"/>
            <path id="Path_24243" data-name="Path 24243" d="M588.151,239.075a12.422,12.422,0,0,1-1.022,5.342c-.856,1.62-2.707,2.866-4.48,2.417-.794-.205-1.487-.716-2.284-.911-3.152-.778-5.069,3.237-6.285,6.25a11.54,11.54,0,0,1-4.125,5.625c-1.988,1.275-4.857,1.405-6.572-.221-1.077-1.022-1.578-2.57-2.762-3.468-2.329-1.767-5.667-.055-7.818,1.926s-4.493,4.444-7.4,4.138c-1.539-.163-2.934-1.119-4.483-1.152-4.545-.094-5.986,7.017-10.394,8.127a11.687,11.687,0,0,1-3.992-.075,20.533,20.533,0,0,0-12.932,3.048,5.653,5.653,0,0,0-1.887,1.714c-1.76,2.886,1.484,6.152,2.466,9.386,1.6,5.277-3.052,11.442-.267,16.2a14.623,14.623,0,0,0,3.533,3.53,31.267,31.267,0,0,1,8.563,11.439c-1.5.442-2.046,2.4-1.627,3.914a18.111,18.111,0,0,0,2.284,4.093c2.609,4.447,2.121,10.108.423,14.978a34.109,34.109,0,0,1-7.3,12.07c2.235,1.383,5.124.039,7.284-1.461a51.351,51.351,0,0,0,21.361-35.009c.651-4.948.781-10.479,4.275-14.041a18.846,18.846,0,0,1,3.855-2.795q4.275-2.581,8.55-5.16a11.727,11.727,0,0,0,3-2.281c2.342-2.759,1.653-6.962.254-10.3s-3.413-6.614-3.344-10.232a2.588,2.588,0,0,1,.27-1.256c.634-1.083,2.2-.93,3.452-.865s2.928-.612,2.674-1.838c1.63,1.884,4.8.478,6.377-1.451s2.859-4.467,5.28-5.069c2.154-.534,4.317.725,6.523,1,4.542.55,8.41-3.058,11.552-6.386q5.676-6.012,11.354-12.024c3.084-3.263,6.4-7.736,4.506-11.81-.781-1.685-2.352-2.908-3.123-4.6-1.7-3.722.976-8.228-.28-12.122-.455-1.409-1.415-2.687-1.461-4.168-.091-3.029,3.787-4.786,6.715-4.011s5.157,3.068,7.619,4.831a23.657,23.657,0,0,0,9.3,3.989,4.328,4.328,0,0,0,2.814-.156,1.7,1.7,0,0,0,.726-2.4c-7.6-9.109-16.052-16.345-27.6-19.026s-23.661-3.224-34.726-7.5c-7.382-2.856-14.038-7.284-20.542-11.793-4-2.769-8.029-5.615-12.62-7.213a50.194,50.194,0,0,0-10.111-2.033q-17.436-2.25-34.954-3.819a4.782,4.782,0,0,0-2.063.117c-1.767.647-2.092,3.244-1,4.776s3.035,2.186,4.887,2.528a18.86,18.86,0,0,1,5.456,1.357c3.631,1.91,4.848,6.63,8.117,9.109,1.653,1.253,3.709,1.838,5.518,2.86a13.067,13.067,0,0,1,6.386,9.2c2.349-.218,3.452-3,3.758-5.342s.547-5.078,2.538-6.341c1.217-.774,3.039-.973,3.475-2.346.156-.491.078-1.035.241-1.526.348-1.07,1.627-1.467,2.726-1.708,2.326-.511,4.952-.973,6.926.358s1.887,5.2-.478,5.482a14.352,14.352,0,0,1-2.469-.322c-2.856-.176-4.568,3.8-3.117,6.272s4.721,3.3,7.554,2.9c1.832-.254,3.6-.911,5.446-1a17.91,17.91,0,0,1,6.936,1.542q2.982,1.1,5.964,2.193a5.072,5.072,0,0,1,1.747.914c1.519,1.4.628,4.223-1.24,5.095s-4.128.247-5.869-.862-3.169-2.648-4.86-3.829-3.842-2-5.811-1.386a11.745,11.745,0,0,0-2.843,1.63c-2.313,1.529-4.952,2.525-7.222,4.112s-4.242,4.024-4.187,6.8,2.977,5.427,5.547,4.389c.914-.368,1.646-1.116,2.58-1.425,2.017-.664,4.1.956,5.2,2.775s1.711,3.966,3.192,5.485c2.554,2.619,7.06,2.742,9.265,5.658,2.665,3.51.833,9.62,4.486,12.089.888.6,2,.872,2.739,1.653,1.048,1.116.969,2.869.631,4.363s-.879,3.029-.517,4.516,2.134,2.746,3.426,1.92a4.422,4.422,0,0,0,1.357-2.242,9.059,9.059,0,0,1,6.891-5.4,2.594,2.594,0,0,1,1.62.159c1.188.654,1,2.492,1.91,3.5.726.8,1.936.865,2.96,1.214s1.633.329,1.588,1.409" transform="translate(1115.551 352.368)" fill="#60a597"/>
            <path id="Path_24244" data-name="Path 24244" d="M565.62,228.406c-4,.712-6.809,4.2-9.392,7.34s-5.83,6.406-9.893,6.386c-3.842-.023-6.972-3-9.405-5.97a5.624,5.624,0,0,1-1.484-2.821,2.045,2.045,0,0,1,1.692-2.326c.573-.013,1.129.3,1.688.2,1.324-.251,1.331-2.4,2.551-2.974,1.314-.618,3.178.989,4.181-.062.5-.524.368-1.363.543-2.066.732-2.915,6.422-2.938,5.853-6.123a2.36,2.36,0,0,0-2.362-1.854c-2.271-.01-3.657,1.688-5.078,3.149-1.122,1.152-2.521,2.274-4.132,2.209-2.072-.081-4.047-2.115-5.941-1.262-.843.381-1.409,1.275-2.3,1.506a5.087,5.087,0,0,1-2.593-.491,5.691,5.691,0,0,0-6.884,5.765,3.422,3.422,0,0,1-.068,1.994c-.377.7-1.262.885-2,1.184-2.381.963-3.647,3.491-5.059,5.638s-3.709,4.272-6.211,3.689a32.052,32.052,0,0,0,.927-9.812c-4.711-.836-9.028-7.831-8.374-12.571-1.789-.8-3.445,1.467-3.771,3.4s-.443,4.3-2.18,5.212c-1.656.865-3.9-.2-5.456.839a7.426,7.426,0,0,0-1.627,2.017c-1.484,2.053-3.992,3.045-6.36,3.937-1.776.67-3.637,1.35-5.547.794a3.4,3.4,0,0,1-2.1-1.636c-1.044-2.02.576-4,2.365-4.968,1.884-1.022,4.119-1.425,5.56-3.159a3.309,3.309,0,0,0,.791-2.486c-.2-1.64-1.513-2.173-2.765-2.44-2.079-.443-4.337-.358-6.172-1.428a9.583,9.583,0,0,1-3.543-4.643c-1.22-2.762-1.988-6.253-.078-8.6,2.417-2.961,8.228-2.912,8.683-6.8a3.908,3.908,0,0,0-3.123-4.128c-3.139-.745-5.84,1.155-7.951,3.263-.687.683-1.477,1.464-2.525,1.135a1.923,1.923,0,0,1-1.213-2.15c.228-1.656,1.62-2.593,2.817-3.585,1.005-.836,1.988-1.946,1.92-3.25-.124-2.394-3.442-3.263-4.408-5.459a4.3,4.3,0,0,1,1.259-4.626,12.912,12.912,0,0,1,4.454-2.42,4.713,4.713,0,0,0,3.335-3.055c.924-1.91,1.864-3.884,1.617-6.077a4.25,4.25,0,0,0-1.828-3.133c-2.791-1.8-6.172.924-8.322,3.413-1.646-1.545-.563-5.3-2.947-5.684a2.571,2.571,0,0,0-2.863,2.466c-.387,4.353-4.919,7.5-9.087,6.8,1.633-1.584,3.409-3.845,2.411-5.9a5.474,5.474,0,0,0-1.353-1.571q-1.4-1.264-2.8-2.525c-1.74-1.568-3.533-3.2-4.171-5.54a4.7,4.7,0,0,1,.387-3.637c1.366-2.281,4.19-2.235,6.6-1.962a102.09,102.09,0,0,1,16.377,3.221,53.4,53.4,0,0,0,7.043,1.744c4.828.683,9.731-.312,14.6-.221,6.233.12,12.275,2.007,18.319,3.533a19.939,19.939,0,0,0,5.856.83,37.51,37.51,0,0,0,6.409-1.415c9.614-2.255,19.6,1.565,28.2,6.432,8.969,5.085,17.4,11.462,27.413,14.11a2.064,2.064,0,0,0,2.31-.895c.634-1.1-.247-2.04-.791-2.967-.456-.781-.514-2.063.351-2.329,3.1-.953,6.65-.54,9.89-.712a6.55,6.55,0,0,1,2.544.2c1.366.482,2.3,1.825,3.689,2.248,1.366.42,2.9-.146,4.246.342,1.37.495,2.137,1.916,2.782,3.221,3.039,6.168,6.126,12.5,6.839,19.341q-3.6-1.64-7.2-3.283a6.152,6.152,0,0,1-3-2.209,7.739,7.739,0,0,1-.683-2.6,14.879,14.879,0,0,0-4.708-8.521,1.536,1.536,0,0,0-2-.114c-1.246,1.08.787,2.824-.146,3.777a10.09,10.09,0,0,0-3.855-1.448,3.883,3.883,0,0,1-3.322,2.368c.413,3.045,6.022,2.2,7.157,5.052.569,1.435-.3,3.3.66,4.5a3.612,3.612,0,0,0,1.689.986,116.906,116.906,0,0,0,12.249,3.608c3.946.93,8.312,1.884,10.717,5.147,1.025,1.4,1.545,3.419.537,4.825-.683.956-1.932,1.438-2.476,2.479-.953,1.828,1.793,4.115,3.419,2.85,2.632,1.62,5.29,4.22,5.352,7.31,0,.059,0,.117,0,.176,0,3.227-3.556,4.9-6.344,3.279a2.665,2.665,0,0,0-.758-.3c-.687-.156-1.412-.023-2.1-.182a5.062,5.062,0,0,1-2.082-1.295q-1.435-1.264-2.873-2.525a4.116,4.116,0,0,1-1-1.126c-.966-1.845,1-4.591-.547-5.989a11.282,11.282,0,0,0-1.636-.888c-2.063-1.324-1.331-5.124-3.917-5.7a2.252,2.252,0,0,0-1.926.537,2.968,2.968,0,0,1-.781.54c-.66.28-1.432.081-2.121.28-1.331.39-1.789,1.991-2.18,3.318s-1.314,2.873-2.687,2.69a16.62,16.62,0,0,1,.986-6.263c-1.731-.251-2.905,1.643-3.689,3.208s-2.307,3.331-3.93,2.677c-1.832-.738-2.19-4.128-4.138-3.806-.729.124-1.227.791-1.88,1.139s-1.77.046-1.636-.68c-.924-.41-.891,1.308-.934,2.32-.094,2.167-3.335,2.635-5.267,2.271a4.817,4.817,0,0,0-1.854-.055c-3.839.787-3.165,3.823-1.464,5.049a7.358,7.358,0,0,0,3.585,1.093A35.494,35.494,0,0,0,583.038,222c-.739,1.9,1.145,3.914,3.126,4.369s4.054-.046,6.087.052a44.4,44.4,0,0,1,6.035,1.171c4.59.859,9.721.153,13.583,2.778a17.676,17.676,0,0,1,4.311,4.792c2.7,3.881,5.394,7.954,6.292,12.6s-.43,10.037-4.376,12.646A6.5,6.5,0,0,0,616,262.078a13.956,13.956,0,0,0-.813,2.235,3.843,3.843,0,0,1-5.846,1.272,21.665,21.665,0,0,1-1.636-2.076,11.077,11.077,0,0,0-2.892-2.177,12.128,12.128,0,0,0-4.548-1.916,4.132,4.132,0,0,0-4.246,1.913c-.9,1.825-.371,4.883-2.378,5.238-.927-.189-1.249-1.3-1.575-2.193-.371-1.022-1.549-2.141-2.407-1.025a1.472,1.472,0,0,0,.2,1.91c2.365,2.45.078,5.257-1.975,7.112q-2.479,2.235-4.958,4.473a6.178,6.178,0,0,0-2.111,2.827c-.706,2.743,2.44,5.254,2.066,8.062-.322,2.43-3.136,3.927-3.53,6.347a14.8,14.8,0,0,0,.169,3.048c.117,2.508-1.217,4.828-2.508,6.978-1.584,2.638-3.227,5.329-6.009,6.9a6.872,6.872,0,0,1-4.62.859c-5.036-.95-6.168-7.255-9.3-11.149-1.214-1.5-2.8-2.694-3.875-4.294-1.253-1.861-1.659-4.652.407-6.064a2.38,2.38,0,0,0,1.048-1.565c.159-1-.553-1.347-1.181-1.669-3.393-1.744-6.445-5.423-5.332-9.07,1.353-4.441,8.289-7.037,4.786-12.132a5.505,5.505,0,0,0-1.474-1.389,20.37,20.37,0,0,1-8.716-17.509,2.361,2.361,0,0,1,.732-1.636c2.264-2.053,5.218,2.788,6.969.937.612-.647.452-1.711.882-2.492.953-1.741,3.556-.862,5.537-.986a4.791,4.791,0,0,0,4.34-4.421,11.516,11.516,0,0,1,.065-2.323c.3-1.191,1.389-1.981,2.261-2.847,1.588-1.571,1.792-2.635,2.085-4.847" transform="translate(1002.067 341.204)" fill="#60a597"/>
            <path id="Path_24245" data-name="Path 24245" d="M486.291,208.387c-.423-.677-1.165-1.191-1.3-1.978-.257-1.428,1.545-2.31,2.144-3.631.66-1.451-.306-3.182-1.607-4.1a40.552,40.552,0,0,0-4.294-2.082,9.375,9.375,0,0,1-4.122-4.574c-.475-1.142-.8-2.479-1.844-3.136a4.608,4.608,0,0,0-2.222-.5c-2.255-.124-4.629-.221-6.646.8a26.834,26.834,0,0,1-2.957,1.669c-3.322,1.178-6.757-1.832-10.277-1.646a11.55,11.55,0,0,0-5.01,1.923,4.488,4.488,0,0,0-2.925,4.037q-.576,3.494-1.155,6.982a9.429,9.429,0,0,0-.176,2.83c.582,4.155,6.012,5.7,7.987,9.4.9,1.688.989,3.68,1.51,5.524s1.75,3.751,3.65,4c2.017.27,3.777-1.48,4.61-3.338s1.109-3.946,2.118-5.716,3.188-3.178,5.046-2.346c.416.185.865.478,1.285.306.335-.137.495-.521.778-.752.605-.491,1.5-.124,2.186.254,2.05,1.132,7.854,5.723,9.9,4.294.791-.553,1.985-2.883,2.531-3.706.989-1.49,1.555-2.811.8-4.519" transform="translate(1000.125 424.325)" fill="#60a597"/>
            <path id="Path_24246" data-name="Path 24246" d="M620.574,257.2a12.006,12.006,0,0,0-3.107-3.823,20.353,20.353,0,0,0-4.984-2.97c-.937-.4-1.942-.768-3-1.106V235.044a11.9,11.9,0,0,1,1.672.852,15.381,15.381,0,0,1,4.88,5.121l5.189-5.121a15.977,15.977,0,0,0-6.52-6.246,18.634,18.634,0,0,0-5.222-1.754v-5.313h-6.624v5.023a18.586,18.586,0,0,0-6.178,1.636,14.929,14.929,0,0,0-5.9,4.743,11.413,11.413,0,0,0-2.183,6.894,14.019,14.019,0,0,0,1.6,6.829,12.667,12.667,0,0,0,4.847,4.844,22.381,22.381,0,0,0,5.085,2.111v14.607a12.272,12.272,0,0,1-2.459-1.083,22.891,22.891,0,0,1-6.416-6.624l-5.052,5.8a21.214,21.214,0,0,0,7.681,6.962,20.336,20.336,0,0,0,6.246,2.01v5.84h6.621v-5.638a20.132,20.132,0,0,0,6.76-1.7,13.787,13.787,0,0,0,6.006-5.156,14.48,14.48,0,0,0,2.118-7.919,10.129,10.129,0,0,0-1.057-4.574M596.509,243.3a6.185,6.185,0,0,1-.547-2.629,5.5,5.5,0,0,1,1.126-3.449,7.343,7.343,0,0,1,3.107-2.284,10.674,10.674,0,0,1,2.661-.68V247.6c-.582-.169-1.135-.348-1.636-.537a10.837,10.837,0,0,1-3.038-1.636,5.9,5.9,0,0,1-1.672-2.118m16.52,23.655a8.175,8.175,0,0,1-3.344,2.251,12.092,12.092,0,0,1-2.938.706v-13.67c.186.055.371.107.547.166a17.21,17.21,0,0,1,3.107,1.331,9.515,9.515,0,0,1,2.186,1.64,5.819,5.819,0,0,1,1.262,1.978,6.562,6.562,0,0,1,.41,2.323,4.894,4.894,0,0,1-1.23,3.276" transform="translate(1320.902 501.556)" fill="#d2fff6"/>
            <path id="Path_24247" data-name="Path 24247" d="M623.15,309.238a45.6,45.6,0,1,1,45.6-45.6,45.654,45.654,0,0,1-45.6,45.6m0-89.382a43.782,43.782,0,1,0,43.78,43.78,43.831,43.831,0,0,0-43.78-43.78" transform="translate(1301.408 491.31)" fill="#d2fff6"/>
            <path id="Path_24248" data-name="Path 24248" d="M623.15,309.238a45.6,45.6,0,1,1,45.6-45.6,45.654,45.654,0,0,1-45.6,45.6m0-89.382a43.782,43.782,0,1,0,43.78,43.78,43.831,43.831,0,0,0-43.78-43.78" transform="translate(1301.408 491.31)" fill="#d2fff6"/>
            <path id="Path_24249" data-name="Path 24249" d="M645.976,364.831a78.557,78.557,0,1,1,78.555-78.558,78.646,78.646,0,0,1-78.555,78.558m0-155.295a76.738,76.738,0,1,0,76.736,76.736,76.826,76.826,0,0,0-76.736-76.736" transform="translate(1278.582 468.058)" fill="#d2fff6"/>
            <path id="Path_24250" data-name="Path 24250" d="M648.159,263.843a4.659,4.659,0,0,1-4.441-3.26,57.452,57.452,0,0,0-47-39.561,4.658,4.658,0,0,1,1.236-9.233,66.8,66.8,0,0,1,54.649,46,4.656,4.656,0,0,1-4.444,6.058" transform="translate(1335.499 477.14)" fill="#d2fff6"/>
            <path id="Path_24251" data-name="Path 24251" d="M576.258,267.977a4.612,4.612,0,0,1-1.067-.124,4.662,4.662,0,0,1-3.471-5.6,66.676,66.676,0,0,1,53.3-50.316,4.657,4.657,0,1,1,1.6,9.174,57.36,57.36,0,0,0-45.83,43.269,4.66,4.66,0,0,1-4.532,3.595" transform="translate(1287.996 477.404)" fill="#d2fff6"/>
            <path id="Path_24252" data-name="Path 24252" d="M636.826,293.24a66.8,66.8,0,0,1-65.252-53.189,4.657,4.657,0,0,1,9.126-1.867,57.456,57.456,0,0,0,56.126,45.742,56.852,56.852,0,0,0,33.841-11.058,4.657,4.657,0,1,1,5.508,7.512,66.093,66.093,0,0,1-39.349,12.86" transform="translate(1287.732 528.315)" fill="#d2fff6"/>
            <path id="Path_24253" data-name="Path 24253" d="M609.7,271.8a4.659,4.659,0,0,1-3.644-7.557,57.165,57.165,0,0,0,11.735-26.72,4.658,4.658,0,0,1,9.2,1.435,66.477,66.477,0,0,1-13.645,31.082,4.647,4.647,0,0,1-3.65,1.76" transform="translate(1363.37 526.332)" fill="#d2fff6"/>
            <path id="Path_24254" data-name="Path 24254" d="M219.074,190.139a14.214,14.214,0,0,0-26.362,6.207,14.072,14.072,0,0,0-5.244-3.549,14.211,14.211,0,0,0-11.494,25.958l28.89,14.477a1.028,1.028,0,0,0,1.4-.491L219.789,203.4a14.256,14.256,0,0,0-.716-13.261" transform="translate(378.844 412.896)" fill="#60a597"/>
            <path id="Path_24255" data-name="Path 24255" d="M224.906,267.429a46.948,46.948,0,1,1,28.776-59.835,47.005,47.005,0,0,1-28.776,59.835m-30.347-86.581a44.8,44.8,0,1,0,57.093,27.458,44.846,44.846,0,0,0-57.093-27.458" transform="translate(365.99 396.974)" fill="#60a597"/>
            <path id="Path_24256" data-name="Path 24256" d="M224.906,267.429a46.948,46.948,0,1,1,28.776-59.835,47.005,47.005,0,0,1-28.776,59.835m-30.347-86.581a44.8,44.8,0,1,0,57.093,27.458,44.846,44.846,0,0,0-57.093-27.458" transform="translate(365.99 396.974)" fill="#60a597"/>
            <path id="Path_24257" data-name="Path 24257" d="M259.524,322.787a80.777,80.777,0,1,1,49.512-102.948,80.87,80.87,0,0,1-49.512,102.948M206.8,172.356a78.626,78.626,0,1,0,100.206,48.195A78.717,78.717,0,0,0,206.8,172.356" transform="translate(342.561 373.541)" fill="#60a597"/>
            <g id="Group_6954" data-name="Group 6954" transform="translate(506.986 551.723)" opacity="0.61">
              <g id="Group_6953" data-name="Group 6953">
                <g id="Group_6952" data-name="Group 6952" clip-path="url(#clip-path-11)">
                  <path id="Path_24258" data-name="Path 24258" d="M241.56,204.369a4.781,4.781,0,0,1-5.41-1.649,58.963,58.963,0,0,0-58.957-22.363,4.781,4.781,0,0,1-1.939-9.363,68.56,68.56,0,0,1,68.554,26,4.778,4.778,0,0,1-2.248,7.379" transform="translate(-120.672 -169.588)" fill="#60a597"/>
                  <path id="Path_24259" data-name="Path 24259" d="M162.554,243.537a4.673,4.673,0,0,1-1.077.241,4.777,4.777,0,0,1-5.261-4.246A68.434,68.434,0,0,1,190.757,172.7a4.782,4.782,0,0,1,4.672,8.345,58.885,58.885,0,0,0-29.706,57.473,4.781,4.781,0,0,1-3.169,5.02" transform="translate(-155.836 -163.957)" fill="#60a597"/>
                  <path id="Path_24260" data-name="Path 24260" d="M240.562,235.79A68.569,68.569,0,0,1,159.3,206.422a4.78,4.78,0,1,1,8.2-4.906,58.976,58.976,0,0,0,69.9,25.249,58.325,58.325,0,0,0,29.026-22.2,4.781,4.781,0,1,1,7.886,5.407,67.826,67.826,0,0,1-33.75,25.818" transform="translate(-149.569 -102.894)" fill="#60a597"/>
                  <path id="Path_24261" data-name="Path 24261" d="M200.21,227.21a4.78,4.78,0,0,1-6.093-6.084,58.687,58.687,0,0,0,2.294-29.866,4.78,4.78,0,1,1,9.4-1.734,68.27,68.27,0,0,1-2.664,34.739,4.77,4.77,0,0,1-2.938,2.944" transform="translate(-70.178 -133.479)" fill="#60a597"/>
                </g>
              </g>
            </g>
            <path id="Path_24262" data-name="Path 24262" d="M730.978,469.287l18.163-2.2-18.163-2.2-2.251-2.248-2.2-18.163-2.2,18.163-2.251,2.248-18.163,2.2,18.163,2.2,2.251,2.251,2.2,18.16,2.2-18.16Z" transform="translate(1586.167 1001.563)" fill="#aefff1"/>
            <path id="Path_24263" data-name="Path 24263" d="M724.028,59.01l18.164-2.2-18.164-2.2-2.251-2.248-2.2-18.163-2.2,18.163-2.251,2.248-18.163,2.2,18.163,2.2,2.251,2.251,2.2,18.16,2.2-18.16Z" transform="translate(1570.507 77.071)" fill="#aefff1"/>
            <path id="Path_24264" data-name="Path 24264" d="M403.674,38.206l18.163-2.2-18.163-2.2-2.251-2.248-2.2-18.163-2.2,18.163-2.251,2.248-18.163,2.2,18.163,2.2,2.251,2.251,2.2,18.16,2.2-18.16Z" transform="translate(848.643 30.194)" fill="#aefff1"/>
            <path id="Path_24265" data-name="Path 24265" d="M710.2,388.091l18.164-2.2L710.2,383.7l-2.251-2.248-2.2-18.163-2.2,18.163-2.251,2.248-18.163,2.2,18.163,2.2,2.251,2.251,2.2,18.16,2.2-18.16Z" transform="translate(1539.353 818.6)" fill="#aefff1"/>
            <path id="Path_24266" data-name="Path 24266" d="M750.361,184.111l18.163-2.2-18.163-2.2-2.251-2.248-2.2-18.163-2.2,18.163-2.251,2.248-18.164,2.2,18.164,2.2,2.251,2.251,2.2,18.16,2.2-18.16Z" transform="translate(1629.843 358.967)" fill="#aefff1"/>
            <path id="Path_24267" data-name="Path 24267" d="M176.567,425.059l18.163-2.2-18.163-2.2-2.251-2.248-2.2-18.163-2.2,18.163-2.251,2.248-18.163,2.2,18.163,2.2,2.251,2.251,2.2,18.16,2.2-18.16Z" transform="translate(336.894 901.902)" fill="#aefff1"/>
            <path id="Path_24268" data-name="Path 24268" d="M130.508,462.338l18.163-2.2-18.163-2.2-2.251-2.248-2.2-18.163-2.2,18.163-2.251,2.248-18.163,2.2,18.163,2.2,2.251,2.251,2.2,18.16,2.2-18.16Z" transform="translate(233.107 985.903)" fill="#aefff1"/>
            <path id="Path_24269" data-name="Path 24269" d="M61.427,344.522l18.163-2.2-18.163-2.2-2.251-2.248-2.2-18.163-2.2,18.163-2.251,2.248-18.163,2.2,18.163,2.2,2.251,2.251,2.2,18.16,2.2-18.16Z" transform="translate(77.444 720.426)" fill="#aefff1"/>
            <path id="Path_24270" data-name="Path 24270" d="M122.149,57.42l18.163-2.2-18.163-2.2L119.9,50.776l-2.2-18.163-2.2,18.163-2.251,2.248-18.163,2.2,18.163,2.2,2.251,2.251,2.2,18.16,2.2-18.16Z" transform="translate(214.272 73.488)" fill="#aefff1"/>
            <path id="Path_24271" data-name="Path 24271" d="M700.879,415.531a6.372,6.372,0,1,1-6.37-6.37,6.369,6.369,0,0,1,6.37,6.37" transform="translate(1550.6 921.976)" fill="#aefff1"/>
            <path id="Path_24272" data-name="Path 24272" d="M731.4,117.6a6.372,6.372,0,1,1-6.37-6.37,6.37,6.37,0,0,1,6.37,6.37" transform="translate(1619.369 250.641)" fill="#aefff1"/>
            <path id="Path_24273" data-name="Path 24273" d="M733.357,73.131a6.372,6.372,0,1,1-6.37-6.37,6.37,6.37,0,0,1,6.37,6.37" transform="translate(1623.783 150.435)" fill="#aefff1"/>
            <path id="Path_24274" data-name="Path 24274" d="M657.536,31.965a6.372,6.372,0,1,1-6.37-6.37,6.37,6.37,0,0,1,6.37,6.37" transform="translate(1452.934 57.674)" fill="#aefff1"/>
            <path id="Path_24275" data-name="Path 24275" d="M239.6,16.928a6.372,6.372,0,1,1-6.37-6.37,6.369,6.369,0,0,1,6.37,6.37" transform="translate(511.187 23.791)" fill="#aefff1"/>
            <path id="Path_24276" data-name="Path 24276" d="M674.043,469.376a6.372,6.372,0,1,1-6.37-6.37,6.369,6.369,0,0,1,6.37,6.37" transform="translate(1490.129 1043.307)" fill="#aefff1"/>
            <path id="Path_24277" data-name="Path 24277" d="M32.862,429.875a6.372,6.372,0,1,1-6.37-6.37,6.369,6.369,0,0,1,6.37,6.37" transform="translate(45.335 954.298)" fill="#aefff1"/>
            <path id="Path_24278" data-name="Path 24278" d="M44.532,31.965a6.372,6.372,0,1,1-6.37-6.37,6.37,6.37,0,0,1,6.37,6.37" transform="translate(71.631 57.674)" fill="#aefff1"/>
            <path id="Path_24279" data-name="Path 24279" d="M32.862,166.093a6.372,6.372,0,1,1-6.37-6.37,6.37,6.37,0,0,1,6.37,6.37" transform="translate(45.335 359.909)" fill="#aefff1"/>
            <path id="Path_24280" data-name="Path 24280" d="M62.471,78.68a6.372,6.372,0,1,1-6.37-6.37,6.37,6.37,0,0,1,6.37,6.37" transform="translate(112.054 162.939)" fill="#aefff1"/>
            <path id="Path_24281" data-name="Path 24281" d="M666.149,320.085a6.372,6.372,0,1,1-6.37-6.373,6.369,6.369,0,0,1,6.37,6.373" transform="translate(1472.342 706.898)" fill="#aefff1"/>
            <path id="Path_24282" data-name="Path 24282" d="M724.645,318.535a6.372,6.372,0,1,1-6.37-6.37,6.369,6.369,0,0,1,6.37,6.37" transform="translate(1604.152 703.412)" fill="#aefff1"/>
            <path id="Path_24283" data-name="Path 24283" d="M731.4,372.443a6.372,6.372,0,1,1-6.37-6.37,6.37,6.37,0,0,1,6.37,6.37" transform="translate(1619.369 824.884)" fill="#aefff1"/>
            <path id="Path_24284" data-name="Path 24284" d="M698.921,315.925a6.372,6.372,0,1,1-6.37-6.37,6.369,6.369,0,0,1,6.37,6.37" transform="translate(1546.188 697.531)" fill="#aefff1"/>
            <path id="Path_24285" data-name="Path 24285" d="M164.556,35.386a6.372,6.372,0,1,1-6.37-6.37,6.369,6.369,0,0,1,6.37,6.37" transform="translate(342.085 65.383)" fill="#aefff1"/>
            <path id="Path_24286" data-name="Path 24286" d="M37.582,372.443a6.372,6.372,0,1,1-6.37-6.37,6.37,6.37,0,0,1,6.37,6.37" transform="translate(55.971 824.884)" fill="#aefff1"/>
            <path id="Path_24287" data-name="Path 24287" d="M79.6,413.573a6.372,6.372,0,1,1-6.37-6.37,6.369,6.369,0,0,1,6.37,6.37" transform="translate(150.658 917.564)" fill="#aefff1"/>
            <path id="Path_24288" data-name="Path 24288" d="M105.876,375.506a6.372,6.372,0,1,1-6.37-6.37,6.369,6.369,0,0,1,6.37,6.37" transform="translate(209.86 831.786)" fill="#aefff1"/>
            <path id="Path_24289" data-name="Path 24289" d="M67.436,464.751a6.372,6.372,0,1,1-6.37-6.37,6.37,6.37,0,0,1,6.37,6.37" transform="translate(123.242 1032.885)" fill="#aefff1"/>
            <path id="Path_24290" data-name="Path 24290" d="M37.582,247.857a6.372,6.372,0,1,1-6.37-6.37,6.369,6.369,0,0,1,6.37,6.37" transform="translate(55.971 544.151)" fill="#aefff1"/>
            <path id="Path_24291" data-name="Path 24291" d="M176.684,462.792a6.372,6.372,0,1,1-6.37-6.37,6.37,6.37,0,0,1,6.37,6.37" transform="translate(369.414 1028.471)" fill="#aefff1"/>
            <path id="Path_24292" data-name="Path 24292" d="M32.237,80.909a6.372,6.372,0,1,1-6.37-6.37,6.369,6.369,0,0,1,6.37,6.37" transform="translate(43.926 167.961)" fill="#aefff1"/>
            <path id="Path_24293" data-name="Path 24293" d="M614.179,18.886a6.372,6.372,0,1,1-6.37-6.37,6.369,6.369,0,0,1,6.37,6.37" transform="translate(1355.236 28.203)" fill="#aefff1"/>
            <path id="Path_24294" data-name="Path 24294" d="M474.348,22.8a6.372,6.372,0,1,1-6.37-6.37,6.37,6.37,0,0,1,6.37,6.37" transform="translate(1040.15 37.029)" fill="#aefff1"/>
            <path id="Path_24295" data-name="Path 24295" d="M560.019,20.844a6.372,6.372,0,1,1-6.37-6.37,6.372,6.372,0,0,1,6.37,6.37" transform="translate(1233.195 32.615)" fill="#aefff1"/>
            <path id="Path_24296" data-name="Path 24296" d="M739.079,218.541a6.372,6.372,0,1,1-6.37-6.37,6.37,6.37,0,0,1,6.37,6.37" transform="translate(1636.677 478.092)" fill="#aefff1"/>
          </g>
        </g>
      </g>
    </g>
  </g>
</svg>
